<svg width="40" height="40" viewBox="0 0 50 50" fill="none" xmlns="http://www.w3.org/2000/svg">
<path fill-rule="evenodd" clip-rule="evenodd" d="M25 5C21.5019 4.99936 18.0648 5.91622 15.0318 7.65907C11.9988 9.40192 9.47595 11.9098 7.71507 14.9324C5.95419 17.955 5.01688 21.3865 4.99669 24.8846C4.97651 28.3826 5.87415 31.8248 7.60003 34.8675C8.76655 33.3514 10.2661 32.124 11.9827 31.28C13.6994 30.4359 15.5871 29.998 17.5 30H32.5C34.4129 29.998 36.3007 30.4359 38.0173 31.28C39.7339 32.124 41.2335 33.3514 42.4 34.8675C44.1259 31.8248 45.0235 28.3826 45.0034 24.8846C44.9832 21.3865 44.0459 17.955 42.285 14.9324C40.5241 11.9098 38.0013 9.40192 34.9682 7.65907C31.9352 5.91622 28.4981 4.99936 25 5ZM44.8575 40.19C48.2001 35.8324 50.0081 30.4919 50 25C50 11.1925 38.8075 0 25 0C11.1925 0 2.81331e-05 11.1925 2.81331e-05 25C-0.00822546 30.492 1.79979 35.8325 5.14253 40.19L5.13003 40.235L6.01753 41.2675C8.36224 44.0088 11.2735 46.209 14.5506 47.7166C17.8277 49.2242 21.3928 50.0032 25 50C30.0684 50.0093 35.0185 48.4698 39.1875 45.5875C40.9648 44.3595 42.5765 42.9076 43.9825 41.2675L44.87 40.235L44.8575 40.19ZM25 10C23.0109 10 21.1032 10.7902 19.6967 12.1967C18.2902 13.6032 17.5 15.5109 17.5 17.5C17.5 19.4891 18.2902 21.3968 19.6967 22.8033C21.1032 24.2098 23.0109 25 25 25C26.9892 25 28.8968 24.2098 30.3033 22.8033C31.7099 21.3968 32.5 19.4891 32.5 17.5C32.5 15.5109 31.7099 13.6032 30.3033 12.1967C28.8968 10.7902 26.9892 10 25 10Z" fill="#8A8A8A"/>
</svg>
