<svg width="25" height="25" viewBox="0 0 25 25" fill="none" xmlns="http://www.w3.org/2000/svg">
<path d="M10.5258 5.37234H14.6053C14.6053 4.83136 14.3904 4.31253 14.0079 3.93C13.6254 3.54747 13.1065 3.33256 12.5656 3.33256C12.0246 3.33256 11.5058 3.54747 11.1232 3.93C10.7407 4.31253 10.5258 4.83136 10.5258 5.37234ZM8.99596 5.37234C8.99596 4.90357 9.08829 4.43939 9.26768 4.00631C9.44707 3.57323 9.71 3.17972 10.0415 2.84825C10.3729 2.51678 10.7665 2.25384 11.1995 2.07445C11.6326 1.89506 12.0968 1.80273 12.5656 1.80273C13.0343 1.80273 13.4985 1.89506 13.9316 2.07445C14.3647 2.25384 14.7582 2.51678 15.0897 2.84825C15.4211 3.17972 15.6841 3.57323 15.8634 4.00631C16.0428 4.43939 16.1352 4.90357 16.1352 5.37234H21.9995C22.2024 5.37234 22.3969 5.45293 22.5404 5.59638C22.6838 5.73982 22.7644 5.93438 22.7644 6.13725C22.7644 6.34012 22.6838 6.53468 22.5404 6.67813C22.3969 6.82158 22.2024 6.90217 21.9995 6.90217H20.6533L19.46 19.254C19.3685 20.2004 18.9277 21.0788 18.2236 21.7179C17.5195 22.3569 16.6026 22.7108 15.6517 22.7104H9.47939C8.52871 22.7105 7.61208 22.3566 6.9082 21.7175C6.20432 21.0785 5.76367 20.2003 5.67215 19.254L4.47786 6.90217H3.13161C2.92875 6.90217 2.73419 6.82158 2.59074 6.67813C2.44729 6.53468 2.3667 6.34012 2.3667 6.13725C2.3667 5.93438 2.44729 5.73982 2.59074 5.59638C2.73419 5.45293 2.92875 5.37234 3.13161 5.37234H8.99596ZM11.0357 10.2168C11.0357 10.0139 10.9551 9.81937 10.8117 9.67592C10.6682 9.53247 10.4737 9.45188 10.2708 9.45188C10.0679 9.45188 9.87339 9.53247 9.72994 9.67592C9.58649 9.81937 9.5059 10.0139 9.5059 10.2168V17.8659C9.5059 18.0688 9.58649 18.2634 9.72994 18.4068C9.87339 18.5503 10.0679 18.6309 10.2708 18.6309C10.4737 18.6309 10.6682 18.5503 10.8117 18.4068C10.9551 18.2634 11.0357 18.0688 11.0357 17.8659V10.2168ZM14.8603 9.45188C15.0632 9.45188 15.2577 9.53247 15.4012 9.67592C15.5446 9.81937 15.6252 10.0139 15.6252 10.2168V17.8659C15.6252 18.0688 15.5446 18.2634 15.4012 18.4068C15.2577 18.5503 15.0632 18.6309 14.8603 18.6309C14.6574 18.6309 14.4629 18.5503 14.3194 18.4068C14.176 18.2634 14.0954 18.0688 14.0954 17.8659V10.2168C14.0954 10.0139 14.176 9.81937 14.3194 9.67592C14.4629 9.53247 14.6574 9.45188 14.8603 9.45188ZM7.19484 19.1071C7.24985 19.6749 7.51431 20.2017 7.93667 20.5851C8.35903 20.9684 8.90901 21.1807 9.47939 21.1806H15.6517C16.2221 21.1807 16.7721 20.9684 17.1944 20.5851C17.6168 20.2017 17.8813 19.6749 17.9363 19.1071L19.1173 6.90217H6.01381L7.19484 19.1071Z" fill="#808080"/>
</svg>
