<svg width="26" height="25" viewBox="0 0 26 25" fill="none" xmlns="http://www.w3.org/2000/svg">
<path d="M12.9492 3.33301H5.81004C5.26906 3.33301 4.75023 3.54791 4.3677 3.93044C3.98517 4.31298 3.77026 4.8318 3.77026 5.37278V19.6512C3.77026 20.1922 3.98517 20.711 4.3677 21.0935C4.75023 21.4761 5.26906 21.691 5.81004 21.691H20.0884C20.6294 21.691 21.1483 21.4761 21.5308 21.0935C21.9133 20.711 22.1282 20.1922 22.1282 19.6512V12.512" stroke="#808080" stroke-width="2.03977" stroke-linecap="round" stroke-linejoin="round"/>
<path d="M19.4507 2.95008C19.8564 2.54435 20.4067 2.31641 20.9805 2.31641C21.5543 2.31641 22.1046 2.54435 22.5104 2.95008C22.9161 3.35582 23.144 3.90611 23.144 4.47991C23.144 5.05371 22.9161 5.60401 22.5104 6.00974L12.9489 15.5712L8.86938 16.5911L9.88927 12.5115L19.4507 2.95008Z" stroke="#808080" stroke-width="2.03977" stroke-linecap="round" stroke-linejoin="round"/>
</svg>
