<svg width="21" height="20" viewBox="0 0 21 20" fill="none" xmlns="http://www.w3.org/2000/svg">
<path d="M3 3.875H2.5V4.375V14.375C2.5 14.8391 2.68437 15.2842 3.01256 15.6124L3.36612 15.2589L3.01256 15.6124C3.34075 15.9406 3.78587 16.125 4.25 16.125H16.75C17.2141 16.125 17.6592 15.9406 17.9874 15.6124C18.3156 15.2842 18.5 14.8391 18.5 14.375V4.375V3.875H18H3ZM3 3.625H18C18.1989 3.625 18.3897 3.70402 18.5303 3.84467C18.671 3.98532 18.75 4.17609 18.75 4.375V14.375C18.75 14.9054 18.5393 15.4141 18.1642 15.7892C17.7891 16.1643 17.2804 16.375 16.75 16.375H4.25C3.71957 16.375 3.21086 16.1643 2.83579 15.7892C2.46071 15.4141 2.25 14.9054 2.25 14.375V4.375C2.25 4.17609 2.32902 3.98532 2.46967 3.84467C2.61032 3.70402 2.80109 3.625 3 3.625Z" fill="#031D3B" stroke="#031D3B"/>
<path d="M18.1562 4.375L13.3225 9.9C12.9705 10.3024 12.5366 10.6248 12.0498 10.8458C11.563 11.0667 11.0346 11.181 10.5 11.181C9.96541 11.181 9.437 11.0667 8.95021 10.8458C8.46341 10.6248 8.02947 10.3024 7.6775 9.9L2.84375 4.375H18.1562ZM4.505 4.375L8.6175 9.07625C8.85215 9.34456 9.14146 9.5596 9.46603 9.70693C9.79061 9.85426 10.1429 9.93048 10.4994 9.93048C10.8558 9.93048 11.2081 9.85426 11.5327 9.70693C11.8573 9.5596 12.1466 9.34456 12.3813 9.07625L16.495 4.375H4.505Z" fill="#031D3B"/>
</svg>
