<svg width="23" height="23" viewBox="0 0 23 23" fill="none" xmlns="http://www.w3.org/2000/svg">
<path d="M16.2031 12.3477C15.7969 12.6836 15.4492 13.0586 15.1602 13.4727C14.5117 13.1445 13.8359 12.9023 13.1328 12.7461C12.4297 12.5898 11.7109 12.5078 10.9766 12.5C10.1328 12.5 9.32812 12.6055 8.5625 12.8164C7.79688 13.0273 7.07812 13.3242 6.40625 13.707C5.73438 14.0898 5.13281 14.5547 4.60156 15.1016C4.07031 15.6484 3.60547 16.2539 3.20703 16.918C2.80859 17.582 2.51172 18.3047 2.31641 19.0859C2.12109 19.8672 2.01562 20.6719 2 21.5H0.5C0.5 20.3594 0.667969 19.2617 1.00391 18.207C1.33984 17.1523 1.82422 16.1875 2.45703 15.3125C3.08984 14.4375 3.84375 13.6719 4.71875 13.0156C5.59375 12.3594 6.58594 11.8555 7.69531 11.5039C7.27344 11.2227 6.89844 10.8984 6.57031 10.5312C6.24219 10.1641 5.96094 9.76562 5.72656 9.33594C5.49219 8.90625 5.3125 8.45312 5.1875 7.97656C5.0625 7.5 5 7.00781 5 6.5C5 5.67188 5.15625 4.89453 5.46875 4.16797C5.78125 3.44141 6.21094 2.80859 6.75781 2.26953C7.30469 1.73047 7.94141 1.30078 8.66797 0.980469C9.39453 0.660156 10.1719 0.5 11 0.5C11.8281 0.5 12.6055 0.65625 13.332 0.96875C14.0586 1.28125 14.6914 1.71094 15.2305 2.25781C15.7695 2.80469 16.1992 3.44141 16.5195 4.16797C16.8398 4.89453 17 5.67188 17 6.5C17 7.00781 16.9375 7.5 16.8125 7.97656C16.6875 8.45312 16.5117 8.91016 16.2852 9.34766C16.0586 9.78516 15.7734 10.1836 15.4297 10.543C15.0859 10.9023 14.707 11.2266 14.293 11.5156C14.6289 11.625 14.9531 11.7461 15.2656 11.8789C15.5781 12.0117 15.8906 12.168 16.2031 12.3477ZM6.5 6.5C6.5 7.125 6.61719 7.70703 6.85156 8.24609C7.08594 8.78516 7.40625 9.26172 7.8125 9.67578C8.21875 10.0898 8.69531 10.4141 9.24219 10.6484C9.78906 10.8828 10.375 11 11 11C11.6172 11 12.1992 10.8828 12.7461 10.6484C13.293 10.4141 13.7695 10.0938 14.1758 9.6875C14.582 9.28125 14.9062 8.80469 15.1484 8.25781C15.3906 7.71094 15.5078 7.125 15.5 6.5C15.5 5.88281 15.3828 5.30078 15.1484 4.75391C14.9141 4.20703 14.5938 3.73047 14.1875 3.32422C13.7812 2.91797 13.3008 2.59375 12.7461 2.35156C12.1914 2.10938 11.6094 1.99219 11 2C10.375 2 9.79297 2.11719 9.25391 2.35156C8.71484 2.58594 8.23828 2.90625 7.82422 3.3125C7.41016 3.71875 7.08594 4.19922 6.85156 4.75391C6.61719 5.30859 6.5 5.89062 6.5 6.5ZM19.2734 12.4883C19.7891 12.4883 20.2773 12.5859 20.7383 12.7812C21.1992 12.9766 21.5977 13.2461 21.9336 13.5898C22.2695 13.9336 22.5391 14.332 22.7422 14.7852C22.9453 15.2383 23.0469 15.7266 23.0469 16.25C23.0469 16.7656 22.9492 17.25 22.7539 17.7031C22.5586 18.1562 22.2891 18.5547 21.9453 18.8984C21.6016 19.2422 21.1992 19.5117 20.7383 19.707C20.2773 19.9023 19.7891 20.0039 19.2734 20.0117C18.5156 20.0117 17.8242 19.8008 17.1992 19.3789L13.7773 22.8008C13.6289 22.9492 13.4531 23.0234 13.25 23.0234C13.0469 23.0234 12.8711 22.9492 12.7227 22.8008C12.5742 22.6523 12.5 22.4766 12.5 22.2734C12.5 22.0703 12.5742 21.8945 12.7227 21.7461L16.1445 18.3242C15.7227 17.6992 15.5117 17.0078 15.5117 16.25C15.5117 15.7344 15.6094 15.25 15.8047 14.7969C16 14.3438 16.2695 13.9453 16.6133 13.6016C16.957 13.2578 17.3555 12.9883 17.8086 12.793C18.2617 12.5977 18.75 12.4961 19.2734 12.4883ZM19.2734 18.5117C19.5859 18.5117 19.8789 18.4531 20.1523 18.3359C20.4258 18.2188 20.6641 18.0586 20.8672 17.8555C21.0703 17.6523 21.2344 17.4102 21.3594 17.1289C21.4844 16.8477 21.5469 16.5547 21.5469 16.25C21.5469 15.9375 21.4883 15.6445 21.3711 15.3711C21.2539 15.0977 21.0898 14.8594 20.8789 14.6562C20.668 14.4531 20.4297 14.2891 20.1641 14.1641C19.8984 14.0391 19.6016 13.9805 19.2734 13.9883C18.9609 13.9883 18.668 14.0469 18.3945 14.1641C18.1211 14.2812 17.8828 14.4453 17.6797 14.6562C17.4766 14.8672 17.3125 15.1055 17.1875 15.3711C17.0625 15.6367 17.0039 15.9297 17.0117 16.25C17.0117 16.5625 17.0703 16.8555 17.1875 17.1289C17.3047 17.4023 17.4648 17.6406 17.668 17.8438C17.8711 18.0469 18.1133 18.2109 18.3945 18.3359C18.6758 18.4609 18.9688 18.5195 19.2734 18.5117Z" fill="black"/>
</svg>
