<svg width="19" height="14" viewBox="0 0 19 14" fill="none" xmlns="http://www.w3.org/2000/svg">
<path d="M1.57617 3.3125H5.00217V4.40918H1.57617V3.3125Z" fill="#898989"/>
<path d="M1.57617 9.57031H5.00217V10.667H1.57617V9.57031Z" fill="#898989"/>
<path d="M0.275391 6.44141H5.0021V7.53809H0.275391V6.44141Z" fill="#898989"/>
<path d="M12.7659 0.762695C9.33243 0.762695 6.53906 3.55606 6.53906 6.98956C6.53906 10.4231 9.33243 13.2164 12.7659 13.2164C16.1994 13.2164 18.9928 10.4231 18.9928 6.98956C18.9928 3.55606 16.1994 0.762695 12.7659 0.762695ZM12.7659 6.44122C13.7107 6.44122 14.4793 7.20984 14.4793 8.15464C14.4793 8.90766 13.9908 9.5483 13.3143 9.77755V10.6687H12.2176V9.77755C11.541 9.5483 11.0525 8.90766 11.0525 8.15464H12.1492C12.1492 8.49472 12.4258 8.77138 12.7659 8.77138C13.106 8.77138 13.3827 8.49472 13.3827 8.15464C13.3827 7.81456 13.106 7.5379 12.7659 7.5379C11.8211 7.5379 11.0525 6.76927 11.0525 5.82448C11.0525 5.07146 11.541 4.43081 12.2176 4.20157V3.31036H13.3143V4.20157C13.9908 4.43081 14.4793 5.07146 14.4793 5.82448H13.3827C13.3827 5.4844 13.106 5.20774 12.7659 5.20774C12.4258 5.20774 12.1492 5.4844 12.1492 5.82448C12.1492 6.16456 12.4258 6.44122 12.7659 6.44122Z" fill="#898989"/>
</svg>
