<svg width="47" height="47" viewBox="0 0 47 47" fill="none" xmlns="http://www.w3.org/2000/svg">
<path d="M5.47559 23.5H11.7048C12.7214 23.5 13.6964 23.9039 14.4153 24.6228C15.1342 25.3416 15.5381 26.3167 15.5381 27.3333C15.5381 28.35 15.942 29.325 16.6608 30.0439C17.3797 30.7628 18.3548 31.1667 19.3714 31.1667H27.0381C28.0548 31.1667 29.0298 30.7628 29.7487 30.0439C30.4676 29.325 30.8714 28.35 30.8714 27.3333C30.8714 26.3167 31.2753 25.3416 31.9942 24.6228C32.7131 23.9039 33.6881 23.5 34.7048 23.5H40.9339" stroke="black" stroke-width="1.5" stroke-linecap="round" stroke-linejoin="round"/>
<path d="M40.9339 20.3855V29.7292C40.9339 32.7792 39.7223 35.7043 37.5657 37.8609C35.409 40.0176 32.4839 41.2292 29.4339 41.2292H16.9756C13.9256 41.2292 11.0005 40.0176 8.84386 37.8609C6.68719 35.7043 5.47559 32.7792 5.47559 29.7292V17.2709C5.47559 14.2209 6.68719 11.2958 8.84386 9.13915C11.0005 6.98248 13.9256 5.77087 16.9756 5.77087H26.3193" stroke="black" stroke-width="1.5" stroke-linecap="round"/>
<path d="M36.5391 5.77087V15.3542" stroke="black" stroke-width="1.5" stroke-miterlimit="10" stroke-linecap="round"/>
<path d="M40.9344 9.8055L37.1643 6.03542C37.0826 5.95267 36.9853 5.88696 36.8781 5.84211C36.7708 5.79726 36.6557 5.77417 36.5394 5.77417C36.4232 5.77417 36.3081 5.79726 36.2008 5.84211C36.0936 5.88696 35.9963 5.95267 35.9146 6.03542L32.1445 9.8055" stroke="black" stroke-width="1.5" stroke-linecap="round" stroke-linejoin="round"/>
</svg>
