<svg width="26" height="26" viewBox="0 0 26 26" fill="none" xmlns="http://www.w3.org/2000/svg">
<path d="M23.6852 13.0785L25.0608 10.701C25.2262 10.4149 25.2711 10.0749 25.1858 9.75574C25.1005 9.43655 24.892 9.1643 24.606 8.99885L22.226 7.6232V4.88186C22.226 4.55138 22.0947 4.23444 21.8611 4.00076C21.6274 3.76707 21.3104 3.63579 20.98 3.63579H18.2399L16.8655 1.25706C16.6995 0.971604 16.4277 0.762999 16.1091 0.67639C15.9511 0.633546 15.7861 0.622498 15.6237 0.643888C15.4614 0.665277 15.3049 0.718679 15.1633 0.800997L12.7834 2.17665L10.4034 0.799751C10.1172 0.63452 9.77707 0.589743 9.45786 0.67527C9.13865 0.760797 8.86649 0.969623 8.70125 1.25581L7.32559 3.63579H4.5855C4.25502 3.63579 3.93808 3.76707 3.7044 4.00076C3.47072 4.23444 3.33944 4.55138 3.33944 4.88186V7.62195L0.959456 8.9976C0.817445 9.07929 0.692974 9.18823 0.593194 9.31817C0.493414 9.4481 0.420292 9.59648 0.378029 9.75476C0.335766 9.91304 0.325195 10.0781 0.346924 10.2405C0.368652 10.4029 0.422251 10.5594 0.504643 10.701L1.8803 13.0785L0.504643 15.456C0.340148 15.7423 0.295518 16.082 0.380483 16.4011C0.465448 16.7202 0.673116 16.9927 0.95821 17.1593L3.33819 18.535V21.2751C3.33819 21.6055 3.46947 21.9225 3.70315 22.1562C3.93684 22.3898 4.25378 22.5211 4.58426 22.5211H7.32559L8.70125 24.9011C8.81157 25.0897 8.96907 25.2463 9.15828 25.3555C9.34748 25.4648 9.56187 25.5229 9.78034 25.5241C9.99716 25.5241 10.2127 25.4668 10.4046 25.3559L12.7821 23.9803L15.1621 25.3559C15.4482 25.5209 15.7881 25.5657 16.1072 25.4804C16.4263 25.3952 16.6985 25.1868 16.8642 24.9011L18.2386 22.5211H20.9787C21.3092 22.5211 21.6261 22.3898 21.8598 22.1562C22.0935 21.9225 22.2248 21.6055 22.2248 21.2751V18.535L24.6048 17.1593C24.7465 17.0774 24.8708 16.9683 24.9703 16.8384C25.0699 16.7084 25.1429 16.5601 25.1852 16.4019C25.2274 16.2437 25.2381 16.0787 25.2165 15.9164C25.195 15.7541 25.1416 15.5976 25.0596 15.456L23.6852 13.0785ZM9.66695 6.83568C10.1628 6.83585 10.6383 7.03299 10.9889 7.38375C11.3394 7.73451 11.5362 8.21014 11.536 8.70603C11.5359 9.20191 11.3387 9.67741 10.988 10.0279C10.6372 10.3785 10.1616 10.5753 9.6657 10.5751C9.16982 10.575 8.69432 10.3778 8.34379 10.0271C7.99327 9.67629 7.79644 9.20066 7.79661 8.70478C7.79677 8.2089 7.99392 7.73339 8.34468 7.38287C8.69543 7.03235 9.17107 6.83552 9.66695 6.83568ZM10.0408 18.7979L8.04707 17.3039L15.5234 7.33535L17.5171 8.82938L10.0408 18.7979ZM15.8973 19.2963C15.6517 19.2962 15.4086 19.2478 15.1818 19.1538C14.955 19.0597 14.7489 18.9219 14.5754 18.7482C14.4018 18.5746 14.2641 18.3684 14.1703 18.1415C14.0764 17.9147 14.0281 17.6715 14.0282 17.426C14.0283 17.1804 14.0767 16.9373 14.1707 16.7105C14.2648 16.4837 14.4026 16.2776 14.5762 16.1041C14.7499 15.9305 14.9561 15.7929 15.183 15.699C15.4098 15.6051 15.653 15.5568 15.8985 15.5569C16.3944 15.557 16.8699 15.7542 17.2204 16.1049C17.5709 16.4557 17.7678 16.9313 17.7676 17.4272C17.7674 17.9231 17.5703 18.3986 17.2195 18.7491C16.8688 19.0997 16.3931 19.2965 15.8973 19.2963Z" fill="#2449F3"/>
</svg>
