<svg width="22" height="22" viewBox="0 0 22 22" fill="none" xmlns="http://www.w3.org/2000/svg">
<path d="M1.53715 0H20.4631C21.307 0 22 0.932911 22 2.07077V4.85384C22 5.99353 21.309 6.92462 20.4631 6.92462H20.4462V21.0502C20.4462 21.5744 20.1304 22 19.7412 22H2.25877C1.86972 22 1.55384 21.5746 1.55384 21.0502V6.92462H1.53689C0.692988 6.92462 0 5.9917 0 4.85384V2.07077C0 0.931091 0.69104 0 1.53689 0H1.53715ZM9.0629 6.92474V10.9925H12.9367V6.92474H9.0629ZM20.4628 1.89961H1.53683C1.46637 1.89961 1.40965 1.97554 1.40965 2.07098V4.85405C1.40965 4.94668 1.46747 5.02542 1.53683 5.02542H20.4628C20.5333 5.02542 20.59 4.94949 20.59 4.85405V2.07098C20.59 1.97835 20.5322 1.89961 20.4628 1.89961Z" fill="#8C8995"/>
</svg>
