<svg width="25" height="25" viewBox="0 0 25 25" fill="none" xmlns="http://www.w3.org/2000/svg">
<path opacity="0.12" d="M9.77767 3.2669C9.16331 3.79045 8.39945 4.10685 7.59484 4.17106C5.71718 4.3209 4.22617 5.81191 4.07633 7.68956C4.01212 8.49418 3.69572 9.25804 3.17217 9.87239C1.95042 11.306 1.95042 13.4147 3.17217 14.8483C3.69572 15.4627 4.01212 16.2265 4.07633 17.0311C4.22617 18.9088 5.71718 20.3998 7.59484 20.5496C8.39945 20.6139 9.16331 20.9303 9.77767 21.4538C11.2113 22.6756 13.3199 22.6756 14.7536 21.4538C15.3679 20.9303 16.1318 20.6139 16.9364 20.5496C18.8141 20.3998 20.3051 18.9088 20.4549 17.0311C20.5191 16.2265 20.8355 15.4627 21.3591 14.8483C22.5808 13.4147 22.5808 11.306 21.3591 9.87239C20.8355 9.25804 20.5191 8.49418 20.4549 7.68956C20.3051 5.81191 18.8141 4.3209 16.9364 4.17106C16.1318 4.10685 15.3679 3.79045 14.7536 3.2669C13.3199 2.04515 11.2113 2.04515 9.77767 3.2669Z" fill="white"/>
<path d="M9.26269 9.35742H9.2727M15.2686 15.3633H15.2786M16.2695 8.35644L8.26172 16.3643M7.59484 4.17106C8.39945 4.10685 9.16331 3.79045 9.77767 3.2669C11.2113 2.04515 13.3199 2.04515 14.7536 3.2669C15.3679 3.79045 16.1318 4.10685 16.9364 4.17106C18.8141 4.3209 20.3051 5.81191 20.4549 7.68956C20.5191 8.49418 20.8355 9.25804 21.3591 9.87239C22.5808 11.306 22.5808 13.4147 21.3591 14.8483C20.8355 15.4627 20.5191 16.2265 20.4549 17.0311C20.3051 18.9088 18.8141 20.3998 16.9364 20.5496C16.1318 20.6139 15.3679 20.9303 14.7536 21.4538C13.3199 22.6756 11.2113 22.6756 9.77767 21.4538C9.16331 20.9303 8.39945 20.6139 7.59484 20.5496C5.71718 20.3998 4.22617 18.9088 4.07633 17.0311C4.01212 16.2265 3.69572 15.4627 3.17217 14.8483C1.95042 13.4147 1.95042 11.306 3.17217 9.87239C3.69572 9.25804 4.01212 8.49418 4.07633 7.68956C4.22617 5.81191 5.71718 4.3209 7.59484 4.17106ZM9.76318 9.35742C9.76318 9.63383 9.53911 9.85791 9.26269 9.85791C8.98628 9.85791 8.76221 9.63383 8.76221 9.35742C8.76221 9.08101 8.98628 8.85693 9.26269 8.85693C9.53911 8.85693 9.76318 9.08101 9.76318 9.35742ZM15.769 15.3633C15.769 15.6397 15.545 15.8638 15.2686 15.8638C14.9921 15.8638 14.7681 15.6397 14.7681 15.3633C14.7681 15.0869 14.9921 14.8628 15.2686 14.8628C15.545 14.8628 15.769 15.0869 15.769 15.3633Z" stroke="white" stroke-width="2.00195" stroke-linecap="round" stroke-linejoin="round"/>
</svg>
