<svg width="21" height="17" viewBox="0 0 21 17" fill="none" xmlns="http://www.w3.org/2000/svg">
<path d="M19.4698 3.00953C19.0783 2.59947 18.5378 2.35716 17.9227 2.35716H14.8286V2.31988C14.8286 1.8539 14.6422 1.40656 14.3253 1.10833C14.0085 0.791464 13.5798 0.605072 13.1138 0.605072H7.52202C7.0374 0.605072 6.6087 0.791464 6.29183 1.10833C5.97496 1.4252 5.78857 1.8539 5.78857 2.31988V2.35716H2.7131C2.09801 2.35716 1.55747 2.59947 1.16604 3.00953C0.774621 3.40096 0.513672 3.96013 0.513672 4.55659V13.8389C0.513672 14.454 0.755982 14.9946 1.16604 15.386C1.55747 15.7774 2.11664 16.0383 2.7131 16.0383H17.9227C18.5378 16.0383 19.0783 15.796 19.4698 15.386C19.8612 14.9946 20.1221 14.4354 20.1221 13.8389V4.55659C20.1221 3.94149 19.8798 3.40096 19.4698 3.00953ZM19.1529 13.8389H19.1343C19.1343 14.1744 19.0038 14.4727 18.7801 14.6963C18.5564 14.92 18.2582 15.0505 17.9227 15.0505H2.7131C2.37759 15.0505 2.07937 14.92 1.8557 14.6963C1.63203 14.4727 1.50155 14.1744 1.50155 13.8389V4.55659C1.50155 4.22108 1.63203 3.92285 1.8557 3.69918C2.07937 3.47551 2.37759 3.34504 2.7131 3.34504H6.31047C6.59006 3.34504 6.81373 3.12137 6.81373 2.84178V2.30124C6.81373 2.09621 6.88829 1.90982 7.01876 1.77934C7.14924 1.64887 7.33563 1.57431 7.54066 1.57431H13.1138C13.3188 1.57431 13.5052 1.64887 13.6357 1.77934C13.7662 1.90982 13.8407 2.09621 13.8407 2.30124V2.84178C13.8407 3.12137 14.0644 3.34504 14.344 3.34504H17.9413C18.2768 3.34504 18.5751 3.47551 18.7987 3.69918C19.0224 3.92285 19.1529 4.22108 19.1529 4.55659V13.8389Z" fill="white"/>
<path d="M10.3177 4.61237C9.0502 4.61237 7.89457 5.13426 7.07445 5.95439C6.23568 6.79315 5.73242 7.93015 5.73242 9.19761C5.73242 10.4651 6.25432 11.6207 7.07445 12.4408C7.91321 13.2796 9.0502 13.7829 10.3177 13.7829C11.5851 13.7829 12.7408 13.261 13.5609 12.4408C14.3997 11.6021 14.9029 10.4651 14.9029 9.19761C14.9029 7.93015 14.381 6.77452 13.5609 5.95439C12.7408 5.13426 11.5851 4.61237 10.3177 4.61237ZM12.8526 11.7512C12.2002 12.3849 11.3055 12.795 10.3177 12.795C9.32979 12.795 8.43511 12.3849 7.78274 11.7512C7.13036 11.0988 6.73894 10.2041 6.73894 9.21625C6.73894 8.22838 7.149 7.33369 7.78274 6.68132C8.43511 6.02895 9.32979 5.63752 10.3177 5.63752C11.3055 5.63752 12.2002 6.04759 12.8526 6.68132C13.505 7.33369 13.8964 8.22838 13.8964 9.21625C13.915 10.2041 13.505 11.0988 12.8526 11.7512Z" fill="white"/>
<path d="M16.9524 6.42067C17.4568 6.42067 17.8657 6.01176 17.8657 5.50735C17.8657 5.00293 17.4568 4.59402 16.9524 4.59402C16.448 4.59402 16.0391 5.00293 16.0391 5.50735C16.0391 6.01176 16.448 6.42067 16.9524 6.42067Z" fill="white"/>
</svg>
