<svg width="18" height="18" viewBox="0 0 18 18" fill="none" xmlns="http://www.w3.org/2000/svg">
<g clip-path="url(#clip0_1076_5833)">
<path d="M2.87135 6.39579C2.69719 6.39579 2.52703 6.37832 2.3623 6.3457V15.5009C2.3623 16.5332 3.20216 17.3731 4.23451 17.3731H13.5037C14.5359 17.3731 15.3758 16.5332 15.3758 15.5009V6.34574C15.2111 6.37835 15.041 6.39583 14.8668 6.39583L2.87135 6.39579ZM6.37926 14.6831C6.37926 14.9642 6.15134 15.1921 5.87021 15.1921C5.58908 15.1921 5.36116 14.9642 5.36116 14.6831V8.06774C5.36116 7.78661 5.58908 7.55869 5.87021 7.55869C6.15134 7.55869 6.37926 7.78661 6.37926 8.06774V14.6831ZM9.37812 14.6831C9.37812 14.9642 9.1502 15.1921 8.86907 15.1921C8.58794 15.1921 8.36002 14.9642 8.36002 14.6831V8.06774C8.36002 7.78661 8.58794 7.55869 8.86907 7.55869C9.1502 7.55869 9.37812 7.78661 9.37812 8.06774V14.6831ZM12.377 14.6831C12.377 14.9642 12.1491 15.1921 11.8679 15.1921C11.5868 15.1921 11.3589 14.9642 11.3589 14.6831V8.06774C11.3589 7.78661 11.5868 7.55869 11.8679 7.55869C12.1491 7.55869 12.377 7.78661 12.377 8.06774V14.6831Z" fill="#081021"/>
<path d="M14.8664 2.17806H12.104V1.86921C12.104 0.836895 11.2642 -0.00292969 10.2318 -0.00292969H7.50564C6.47329 -0.00292969 5.63343 0.836895 5.63343 1.86921V2.17806H2.87101C1.98904 2.17806 1.27148 2.89565 1.27148 3.77762C1.27148 4.65959 1.98904 5.37715 2.87101 5.37715H14.8664C15.7484 5.37715 16.466 4.65959 16.466 3.77762C16.466 2.89565 15.7484 2.17806 14.8664 2.17806ZM6.65153 1.86921C6.65153 1.39827 7.0347 1.01516 7.50564 1.01516H10.2318C10.7028 1.01516 11.0859 1.39827 11.0859 1.86921V2.17806H6.65153V1.86921Z" fill="#081021"/>
</g>
<defs>
<clipPath id="clip0_1076_5833">
<rect width="17.3754" height="17.3754" fill="white" transform="translate(0.180664 -0.00292969)"/>
</clipPath>
</defs>
</svg>
