<svg width="25" height="24" viewBox="0 0 25 24" fill="none" xmlns="http://www.w3.org/2000/svg">
<rect x="0.75" width="24" height="24" rx="12" fill="#F3F4F5"/>
<path d="M18.431 5.33316H7.06745C6.5249 5.33316 6.08398 5.76358 6.08398 6.29456V17.7047C6.08398 18.2357 6.5249 18.6669 7.06745 18.6669H18.431C18.9746 18.6669 19.4173 18.2357 19.4173 17.7047V6.29456C19.4173 5.76358 18.9746 5.33316 18.431 5.33316Z" fill="#007BB5"/>
<path d="M8.05932 10.3318H10.0389V16.6949H8.05932V10.3318ZM9.04965 7.16876C9.68227 7.16876 10.1959 7.68256 10.1959 8.31554C10.1959 8.94869 9.68226 9.46248 9.04965 9.46248C8.41451 9.46248 7.90234 8.94869 7.90234 8.31554C7.90234 7.68256 8.41451 7.16876 9.04965 7.16876Z" fill="white"/>
<path d="M11.2793 10.3318H13.175V11.2017H13.2021C13.4658 10.7015 14.111 10.174 15.0732 10.174C17.0755 10.174 17.4456 11.4915 17.4456 13.2052V16.6949H15.4682V13.6005C15.4682 12.8627 15.4555 11.9134 14.4406 11.9134C13.4115 11.9134 13.2545 12.7176 13.2545 13.5477V16.6949H11.2793V10.3318Z" fill="white"/>
</svg>
