<svg width="22" height="22" viewBox="0 0 22 22" fill="none" xmlns="http://www.w3.org/2000/svg">
<path d="M18.7919 0H3.20889C1.43954 0 0.000488281 1.43925 0.000488281 3.20838V4.54672H6.01367C6.2519 4.54672 6.49029 4.63849 6.65521 4.81256L8.03936 6.18766H22V3.20839C22 1.43929 20.5609 4.30248e-06 18.7918 4.30248e-06L18.7919 0ZM11.3394 3.74921C10.9943 4.09418 10.4018 4.11347 10.0377 3.74921C9.69853 3.40988 9.66479 2.8295 10.0377 2.45675C10.3391 2.12192 10.9505 2.06838 11.3394 2.45675C11.702 2.81935 11.677 3.41157 11.3394 3.74921ZM15.0059 3.74921C14.583 4.13009 14.0417 4.08637 13.7042 3.74921C13.3175 3.3625 13.3797 2.7643 13.7042 2.45675C14.0434 2.11759 14.6576 2.10845 15.0059 2.45675C15.3725 2.82318 15.3446 3.41055 15.0059 3.74921ZM18.6635 3.74921C18.283 4.12993 17.7026 4.08088 17.371 3.74921C17.0174 3.39558 17.011 2.81669 17.371 2.45675C17.7101 2.11759 18.3244 2.10845 18.6635 2.45675C19.003 2.76233 19.0564 3.35654 18.6635 3.74921Z" fill="#8C8995"/>
<path d="M7.01217 7.75432L5.62802 6.37921H0V18.7913C0 20.5604 1.43901 21.9997 3.20824 21.9997H18.7913C20.5603 21.9997 21.9995 20.5604 21.9995 18.7913L21.9997 8.01994H7.65383C7.4156 8.01994 7.17722 7.92817 7.01213 7.7541L7.01217 7.75432ZM8.17638 12.2645C8.29575 12.2462 8.42392 12.2828 8.52483 12.3561L10.5323 13.9603C10.7431 14.1345 11.0548 14.0886 11.2197 13.8778L13.5755 10.7243C13.6763 10.5961 13.8229 10.532 13.9789 10.5411C14.1438 10.5594 14.2813 10.6512 14.3546 10.7886L17.6454 17.2056C17.7187 17.3431 17.7096 17.5173 17.6271 17.6548C17.5445 17.783 17.398 17.8748 17.233 17.8748H4.75717C4.58311 17.8748 4.42717 17.7739 4.34471 17.6181C4.27123 17.4623 4.28968 17.2789 4.39059 17.1414L7.86466 12.4478C7.93797 12.3469 8.05733 12.2827 8.17637 12.2644L8.17638 12.2645Z" fill="#8C8995"/>
</svg>
