<svg width="24" height="25" viewBox="0 0 24 25" fill="none" xmlns="http://www.w3.org/2000/svg">
<path d="M5.25 3.73077C4.65326 3.73077 4.08097 3.96783 3.65901 4.38978C3.23705 4.81174 3 5.38404 3 5.98077V7.77027C3 8.55027 3.405 9.27327 4.0665 9.68277L9.8655 13.2678C8.98346 13.743 8.28524 14.499 7.88151 15.416C7.47778 16.333 7.39162 17.3585 7.63669 18.33C7.88176 19.3015 8.44403 20.1634 9.23441 20.7792C10.0248 21.395 10.9981 21.7293 12 21.7293C13.0019 21.7293 13.9752 21.395 14.7656 20.7792C15.556 20.1634 16.1182 19.3015 16.3633 18.33C16.6084 17.3585 16.5222 16.333 16.1185 15.416C15.7148 14.499 15.0165 13.743 14.1345 13.2678L19.9335 9.68277C20.2594 9.4812 20.5285 9.19972 20.7151 8.86502C20.9018 8.53032 20.9998 8.1535 21 7.77027V5.98077C21 5.38404 20.7629 4.81174 20.341 4.38978C19.919 3.96783 19.3467 3.73077 18.75 3.73077H5.25ZM9 10.9698V5.23077H15V10.9698L12.3945 12.5808C12.276 12.6541 12.1394 12.6929 12 12.6929C11.8606 12.6929 11.724 12.6541 11.6055 12.5808L9 10.9698ZM12 14.2308C12.7956 14.2308 13.5587 14.5468 14.1213 15.1095C14.6839 15.6721 15 16.4351 15 17.2308C15 18.0264 14.6839 18.7895 14.1213 19.3521C13.5587 19.9147 12.7956 20.2308 12 20.2308C11.2044 20.2308 10.4413 19.9147 9.87868 19.3521C9.31607 18.7895 9 18.0264 9 17.2308C9 16.4351 9.31607 15.6721 9.87868 15.1095C10.4413 14.5468 11.2044 14.2308 12 14.2308Z" fill="black"/>
</svg>
