<svg width="24" height="25" viewBox="0 0 24 25" fill="none" xmlns="http://www.w3.org/2000/svg">
<g clip-path="url(#clip0_294_4280)">
<path d="M16.5 2.23077C16.8978 2.23077 17.2794 2.38881 17.5607 2.67011C17.842 2.95142 18 3.33295 18 3.73077V21.7308C18 22.1286 17.842 22.5101 17.5607 22.7914C17.2794 23.0727 16.8978 23.2308 16.5 23.2308H7.5C7.10218 23.2308 6.72064 23.0727 6.43934 22.7914C6.15804 22.5101 6 22.1286 6 21.7308V3.73077C6 3.33295 6.15804 2.95142 6.43934 2.67011C6.72064 2.38881 7.10218 2.23077 7.5 2.23077H16.5ZM7.5 0.730774C6.70435 0.730774 5.94129 1.04684 5.37868 1.60945C4.81607 2.17206 4.5 2.93512 4.5 3.73077V21.7308C4.5 22.5264 4.81607 23.2895 5.37868 23.8521C5.94129 24.4147 6.70435 24.7308 7.5 24.7308H16.5C17.2956 24.7308 18.0587 24.4147 18.6213 23.8521C19.1839 23.2895 19.5 22.5264 19.5 21.7308V3.73077C19.5 2.93512 19.1839 2.17206 18.6213 1.60945C18.0587 1.04684 17.2956 0.730774 16.5 0.730774L7.5 0.730774Z" fill="black"/>
<path d="M12 21.7308C12.3978 21.7308 12.7794 21.5727 13.0607 21.2914C13.342 21.0101 13.5 20.6286 13.5 20.2308C13.5 19.8329 13.342 19.4514 13.0607 19.1701C12.7794 18.8888 12.3978 18.7308 12 18.7308C11.6022 18.7308 11.2206 18.8888 10.9393 19.1701C10.658 19.4514 10.5 19.8329 10.5 20.2308C10.5 20.6286 10.658 21.0101 10.9393 21.2914C11.2206 21.5727 11.6022 21.7308 12 21.7308Z" fill="black"/>
</g>
<defs>
<clipPath id="clip0_294_4280">
<rect width="24" height="24" fill="white" transform="translate(0 0.730774)"/>
</clipPath>
</defs>
</svg>
