<svg width="55" height="55" viewBox="0 0 55 55" fill="none" xmlns="http://www.w3.org/2000/svg">
<path d="M36.517 6.34473H19.3965C17.8365 6.34473 16.3405 6.96442 15.2374 8.06748C14.1343 9.17054 13.5146 10.6666 13.5146 12.2266V34.2959C14.8854 34.1135 16.2799 34.3237 17.536 34.9022C18.792 35.4806 19.8582 36.4036 20.6106 37.5639C22.0309 38.3125 23.1653 39.5078 23.8388 40.9651C24.5124 42.4225 24.6876 44.061 24.3374 45.6278H42.0837C43.6436 45.6278 45.1397 45.0081 46.2427 43.9051C47.3458 42.802 47.9655 41.306 47.9655 39.746V18.9369L36.517 6.34473Z" fill="#A29EA6"/>
<path d="M17.1763 48.6885H11.6634C9.08401 48.6885 6.98089 46.6029 6.97559 44.0394C6.97375 43.0434 7.29092 42.073 7.88062 41.2703C8.47032 40.4676 9.30157 39.8749 10.2526 39.579C10.6285 38.7692 11.2292 38.0844 11.9831 37.6061C12.7369 37.1278 13.6124 36.8761 14.5052 36.8809C15.398 36.8858 16.2706 37.147 17.0192 37.6335C17.7679 38.12 18.361 38.8112 18.7281 39.6251C19.6419 39.9415 20.4346 40.5342 20.9965 41.3212C21.5584 42.1082 21.8616 43.0504 21.8641 44.0174C21.8673 45.2522 21.3833 46.4192 20.5015 47.3039C20.0666 47.7434 19.5487 48.0922 18.9778 48.3299C18.407 48.5675 17.7947 48.6895 17.1763 48.6885ZM14.4787 40.0348C14.1296 40.0349 13.7913 40.1562 13.5217 40.3781C13.2522 40.6001 13.0681 40.9088 13.0011 41.2514C12.9347 41.5959 12.7552 41.9084 12.4912 42.1395C12.2272 42.3705 11.8936 42.5069 11.5433 42.5271C11.1597 42.5497 10.7994 42.7184 10.5362 42.9984C10.273 43.2784 10.1269 43.6485 10.128 44.0328C10.1296 44.8608 10.8171 45.5345 11.6618 45.5345H17.1747C17.378 45.5342 17.5793 45.4935 17.7667 45.4148C17.9542 45.3361 18.1241 45.2209 18.2667 45.076C18.4063 44.9389 18.5172 44.7754 18.5931 44.595C18.6689 44.4146 18.7082 44.221 18.7085 44.0253C18.7091 43.6522 18.5705 43.2922 18.3196 43.0159C18.0688 42.7396 17.7238 42.5669 17.3523 42.5316C17.0128 42.4986 16.6931 42.3565 16.4413 42.1265C16.1894 41.8965 16.0188 41.591 15.9553 41.2559C15.8894 40.9125 15.706 40.6027 15.4365 40.3799C15.167 40.1571 14.8284 40.0351 14.4787 40.0348Z" fill="#231F20"/>
<path d="M39.3394 18.936H47.9671L36.5186 6.34375V16.1154C36.5186 16.8635 36.8159 17.5809 37.3449 18.1098C37.8739 18.6388 38.5913 18.936 39.3394 18.936Z" fill="#231F20"/>
</svg>
