<svg width="17" height="18" viewBox="0 0 17 18" fill="none" xmlns="http://www.w3.org/2000/svg">
<path d="M8.57439 0.889343C6.92335 0.889343 5.30938 1.37893 3.93659 2.29621C2.5638 3.21348 1.49383 4.51723 0.862007 6.04259C0.230179 7.56796 0.0648647 9.24643 0.386967 10.8657C0.70907 12.4851 1.50412 13.9725 2.67159 15.14C3.83905 16.3074 5.32649 17.1025 6.94581 17.4246C8.56513 17.7467 10.2436 17.5814 11.769 16.9496C13.2943 16.3177 14.5981 15.2478 15.5154 13.875C16.4326 12.5022 16.9222 10.8882 16.9222 9.23717C16.9199 7.0239 16.0396 4.90196 14.4746 3.33695C12.9096 1.77193 10.7877 0.891681 8.57439 0.889343ZM11.7851 9.87931H5.36369C5.19338 9.87931 5.03005 9.81165 4.90963 9.69123C4.7892 9.57081 4.72155 9.40747 4.72155 9.23717C4.72155 9.06686 4.7892 8.90353 4.90963 8.78311C5.03005 8.66268 5.19338 8.59503 5.36369 8.59503H11.7851C11.9554 8.59503 12.1187 8.66268 12.2392 8.78311C12.3596 8.90353 12.4272 9.06686 12.4272 9.23717C12.4272 9.40747 12.3596 9.57081 12.2392 9.69123C12.1187 9.81165 11.9554 9.87931 11.7851 9.87931Z" fill="#F1A706"/>
</svg>
