<svg width="25" height="25" viewBox="0 0 25 25" fill="none" xmlns="http://www.w3.org/2000/svg">
<path opacity="0.12" d="M12.0332 22.3701C17.5614 22.3701 22.043 17.8886 22.043 12.3604C22.043 6.83211 17.5614 2.35059 12.0332 2.35059C6.50496 2.35059 2.02344 6.83211 2.02344 12.3604C2.02344 17.8886 6.50496 22.3701 12.0332 22.3701Z" fill="white"/>
<path d="M8.52978 15.0296C8.52978 16.3195 9.57547 17.3652 10.8654 17.3652H13.0342C14.4162 17.3652 15.5366 16.2449 15.5366 14.8628C15.5366 13.4807 14.4162 12.3604 13.0342 12.3604H11.0322C9.65017 12.3604 8.52978 11.24 8.52978 9.85791C8.52978 8.47585 9.65017 7.35547 11.0322 7.35547H13.201C14.4909 7.35547 15.5366 8.40116 15.5366 9.69108M12.0332 5.854V7.35547M12.0332 17.3652V18.8667M22.043 12.3604C22.043 17.8886 17.5614 22.3701 12.0332 22.3701C6.50496 22.3701 2.02344 17.8886 2.02344 12.3604C2.02344 6.83211 6.50496 2.35059 12.0332 2.35059C17.5614 2.35059 22.043 6.83211 22.043 12.3604Z" stroke="white" stroke-width="2.00195" stroke-linecap="round" stroke-linejoin="round"/>
</svg>
