<svg width="8" height="14" viewBox="0 0 8 14" fill="none" xmlns="http://www.w3.org/2000/svg">
<path d="M0.305919 0.308162C0.110039 0.505537 0 0.773199 0 1.05229C0 1.33138 0.110039 1.59904 0.305919 1.79641L5.47795 7.00635L0.305919 12.2163C0.115591 12.4148 0.0102748 12.6807 0.0126554 12.9566C0.015036 13.2326 0.124922 13.4966 0.318647 13.6917C0.512371 13.8869 0.774433 13.9976 1.04839 14C1.32235 14.0024 1.58628 13.8963 1.78334 13.7045L7.69408 7.75048C7.88996 7.55311 8 7.28544 8 7.00635C8 6.72727 7.88996 6.4596 7.69408 6.26223L1.78334 0.308162C1.5874 0.110846 1.32169 0 1.04463 0C0.767573 0 0.501858 0.110846 0.305919 0.308162Z" fill="#808080"/>
</svg>
