<svg width="24" height="25" viewBox="0 0 24 25" fill="none" xmlns="http://www.w3.org/2000/svg">
<path d="M6 20.7308C5.16667 20.7308 4.45833 20.4391 3.875 19.8558C3.29167 19.2724 3 18.5641 3 17.7308H1V6.73077C1 6.18077 1.196 5.71011 1.588 5.31877C1.98 4.92744 2.45067 4.73144 3 4.73077H17V8.73077H20L23 12.7308V17.7308H21C21 18.5641 20.7083 19.2724 20.125 19.8558C19.5417 20.4391 18.8333 20.7308 18 20.7308C17.1667 20.7308 16.4583 20.4391 15.875 19.8558C15.2917 19.2724 15 18.5641 15 17.7308H9C9 18.5641 8.70833 19.2724 8.125 19.8558C7.54167 20.4391 6.83333 20.7308 6 20.7308ZM6 18.7308C6.28333 18.7308 6.521 18.6348 6.713 18.4428C6.905 18.2508 7.00067 18.0134 7 17.7308C6.99933 17.4481 6.90333 17.2108 6.712 17.0188C6.52067 16.8268 6.28333 16.7308 6 16.7308C5.71667 16.7308 5.47933 16.8268 5.288 17.0188C5.09667 17.2108 5.00067 17.4481 5 17.7308C4.99933 18.0134 5.09533 18.2511 5.288 18.4438C5.48067 18.6364 5.718 18.7321 6 18.7308ZM3 15.7308H3.8C4.08333 15.4308 4.40833 15.1891 4.775 15.0058C5.14167 14.8224 5.55 14.7308 6 14.7308C6.45 14.7308 6.85833 14.8224 7.225 15.0058C7.59167 15.1891 7.91667 15.4308 8.2 15.7308H15V6.73077H3V15.7308ZM18 18.7308C18.2833 18.7308 18.521 18.6348 18.713 18.4428C18.905 18.2508 19.0007 18.0134 19 17.7308C18.9993 17.4481 18.9033 17.2108 18.712 17.0188C18.5207 16.8268 18.2833 16.7308 18 16.7308C17.7167 16.7308 17.4793 16.8268 17.288 17.0188C17.0967 17.2108 17.0007 17.4481 17 17.7308C16.9993 18.0134 17.0953 18.2511 17.288 18.4438C17.4807 18.6364 17.718 18.7321 18 18.7308ZM17 13.7308H21.25L19 10.7308H17V13.7308Z" fill="black"/>
</svg>
