<svg width="22" height="16" viewBox="0 0 22 16" fill="none" xmlns="http://www.w3.org/2000/svg">
<path d="M1 10.5003C1 11.0913 1.1164 11.6764 1.34254 12.2224C1.56869 12.7684 1.90016 13.2644 2.31802 13.6823C3.16193 14.5262 4.30653 15.0003 5.5 15.0003H17.5C18.386 15.0019 19.2396 14.6675 19.8886 14.0644C20.5377 13.4614 20.9339 12.6346 20.9973 11.7509C21.0608 10.8672 20.7867 9.99237 20.2304 9.3028C19.6742 8.61324 18.8771 8.16028 18 8.03531C18.0098 6.33408 17.3996 4.68751 16.2837 3.40341C15.1677 2.1193 13.6223 1.28556 11.9363 1.05802C10.2503 0.830489 8.5392 1.22474 7.12277 2.16708C5.70633 3.10942 4.68156 4.53535 4.24 6.17831C3.30512 6.45132 2.48398 7.02014 1.8998 7.79941C1.31562 8.57868 0.999892 9.52639 1 10.5003Z" stroke="#374FC7" stroke-width="1.5" stroke-linejoin="round"/>
<path d="M13 7L11 5M11 5L9 7M11 5V11" stroke="#374FC7" stroke-width="1.5" stroke-linecap="round" stroke-linejoin="round"/>
</svg>
