<svg width="22" height="22" viewBox="0 0 22 22" fill="none" xmlns="http://www.w3.org/2000/svg">
<path d="M17.1371 4.58759H17.1361L18.7885 4.91802C18.8772 4.93577 18.9502 5.00087 18.9758 5.08866C18.9888 5.1313 18.9899 5.17666 18.9792 5.2199C18.9684 5.26315 18.9461 5.30267 18.9147 5.33426L17.561 6.68951C17.3991 6.85124 17.1796 6.94205 16.9507 6.94201H15.8288L13.009 9.76397C13.0628 9.96718 13.0727 10.1795 13.0381 10.3869C13.0034 10.5942 12.925 10.7918 12.808 10.9664C12.691 11.141 12.5382 11.2887 12.3597 11.3996C12.1812 11.5105 11.9811 11.5821 11.7728 11.6096C11.5645 11.6371 11.3527 11.6198 11.1516 11.559C10.9504 11.4982 10.7645 11.3952 10.6063 11.2568C10.4481 11.1185 10.3212 10.948 10.234 10.7568C10.1467 10.5655 10.1013 10.3579 10.1006 10.1477C10.1007 9.92069 10.153 9.69679 10.2535 9.49327C10.3539 9.28975 10.4997 9.11205 10.6798 8.97391C10.8598 8.83577 11.0691 8.74089 11.2916 8.69659C11.5141 8.65229 11.7438 8.65976 11.963 8.71843L14.7837 5.89549V4.77401C14.7837 4.54518 14.8744 4.32522 15.0361 4.16346L16.3907 2.80821C16.4223 2.77677 16.4618 2.75449 16.505 2.74372C16.5483 2.73295 16.5936 2.7341 16.6362 2.74706C16.724 2.7727 16.7891 2.84569 16.8068 2.93446L17.1371 4.58759Z" fill="#525256"/>
<path d="M4.58808 10.7371C4.58918 11.6523 4.78651 12.5565 5.16676 13.3889C5.54701 14.2213 6.10134 14.9625 6.79235 15.5624C7.48337 16.1623 8.29499 16.607 9.17248 16.8666C10.05 17.1261 10.9729 17.1945 11.879 17.0669C12.7852 16.9394 13.6534 16.619 14.4252 16.1274C15.197 15.6358 15.8544 14.9843 16.3531 14.217C16.8517 13.4497 17.18 12.5843 17.3158 11.6793C17.4516 10.7743 17.3918 9.85067 17.1403 8.97075C17.105 8.86795 17.091 8.75904 17.0991 8.65065C17.1073 8.54226 17.1374 8.43666 17.1876 8.34027C17.2378 8.24388 17.3072 8.15873 17.3913 8.08999C17.4755 8.02126 17.5728 7.97038 17.6773 7.94045C17.7818 7.91052 17.8913 7.90217 17.9991 7.91591C18.1069 7.92965 18.2108 7.96519 18.3045 8.02036C18.3981 8.07553 18.4795 8.14919 18.5438 8.23685C18.6081 8.3245 18.6538 8.42432 18.6783 8.53023C19.1652 10.2342 19.0727 12.0517 18.4153 13.6974C17.758 15.3432 16.5729 16.7242 15.0461 17.6236C13.5192 18.5231 11.737 18.8903 9.97902 18.6675C8.22103 18.4447 6.58674 17.6445 5.33254 16.3925C4.0797 15.1385 3.27876 13.5039 3.05545 11.7453C2.83215 9.98678 3.19913 8.20385 4.09877 6.67646C4.99842 5.14908 6.37979 3.96374 8.026 3.30656C9.67221 2.64937 11.49 2.55755 13.1941 3.0455C13.397 3.10482 13.5682 3.24205 13.6702 3.42721C13.7722 3.61236 13.7968 3.83038 13.7386 4.03362C13.6804 4.23687 13.5442 4.4088 13.3596 4.51186C13.175 4.61492 12.9571 4.64071 12.7536 4.58361C11.8007 4.31019 10.7974 4.26187 9.82263 4.44246C8.84789 4.62305 7.92842 5.0276 7.1367 5.62424C6.34499 6.22087 5.70267 6.99327 5.26039 7.88055C4.81811 8.76782 4.58796 9.74571 4.58808 10.7371Z" fill="#525256"/>
<path d="M8.02784 10.7334C8.02789 11.2731 8.17529 11.8025 8.45412 12.2645C8.73296 12.7266 9.13265 13.1037 9.61008 13.3553C10.0875 13.6069 10.6246 13.7233 11.1633 13.6921C11.7021 13.6608 12.2221 13.4831 12.6672 13.178C13.1123 12.8722 13.4653 12.4505 13.6881 11.9586C13.9108 11.4666 13.9948 10.9231 13.931 10.3869C13.9138 10.2568 13.9315 10.1244 13.9824 10.0034C14.0333 9.88239 14.1155 9.77715 14.2206 9.69851C14.3257 9.61986 14.4499 9.57065 14.5803 9.55593C14.7108 9.54122 14.8428 9.56154 14.9628 9.6148C15.0827 9.66737 15.1866 9.75081 15.2638 9.85661C15.3409 9.96241 15.3887 10.0868 15.4021 10.2171C15.5094 11.1334 15.3288 12.0604 14.8853 12.8694C14.4418 13.6784 13.7574 14.3293 12.9272 14.7317C12.097 15.1341 11.1622 15.2681 10.2524 15.1151C9.34255 14.962 8.50295 14.5296 7.85008 13.8777C7.19722 13.2258 6.76348 12.3869 6.60906 11.4773C6.45465 10.5677 6.58722 9.63265 6.98837 8.80184C7.38953 7.97103 8.03937 7.28571 8.8477 6.841C9.65603 6.39628 10.5828 6.21423 11.4992 6.32012C11.5974 6.32923 11.6927 6.35783 11.7796 6.40425C11.8666 6.45068 11.9434 6.51399 12.0055 6.59048C12.0677 6.66697 12.1139 6.7551 12.1416 6.8497C12.1692 6.9443 12.1777 7.04346 12.1665 7.14138C12.1554 7.2393 12.1248 7.33401 12.0765 7.41995C12.0283 7.50589 11.9634 7.58133 11.8856 7.64185C11.8078 7.70238 11.7187 7.74676 11.6235 7.77241C11.5284 7.79806 11.4291 7.80446 11.3314 7.79122C10.9164 7.74304 10.4959 7.7832 10.0975 7.90906C9.6991 8.03492 9.33184 8.24365 9.01984 8.52152C8.70784 8.79939 8.45816 9.14012 8.28719 9.52134C8.11622 9.90256 8.02783 10.3156 8.02784 10.7334Z" fill="#525256"/>
</svg>
