<svg width="25" height="24" viewBox="0 0 25 24" fill="none" xmlns="http://www.w3.org/2000/svg">
<rect x="0.75" width="24" height="24" rx="12" fill="#F3F4F5"/>
<path d="M12.752 4.99987C9.82967 4.99987 8.97467 5.00287 8.80867 5.01654C8.32986 5.03571 7.86022 5.15386 7.42933 5.36354C7.12804 5.50999 6.85558 5.70951 6.625 5.95254C6.17894 6.41834 5.89459 7.01532 5.814 7.6552C5.76667 7.98287 5.753 8.04954 5.75 9.72187C5.75 10.2795 5.75 11.0132 5.75 11.9972C5.75 14.9179 5.75333 15.7722 5.76733 15.9379C5.78716 16.4065 5.90049 16.8664 6.10067 17.2905C6.28756 17.6734 6.55519 18.0113 6.88514 18.2809C7.21509 18.5505 7.59952 18.7454 8.012 18.8522C8.34527 18.9316 8.68586 18.9763 9.02833 18.9855C9.20167 18.9932 10.9687 18.9985 12.7367 18.9985C14.5047 18.9985 16.2727 18.9965 16.4417 18.9879C16.7967 18.9811 17.1499 18.9349 17.4947 18.8499C17.908 18.7439 18.2931 18.5489 18.6233 18.2786C18.9534 18.0083 19.2205 17.6691 19.406 17.2849C19.6031 16.8691 19.7153 16.4182 19.736 15.9585C19.7453 15.8379 19.7493 13.9145 19.7493 11.9939C19.7493 10.0732 19.745 8.1532 19.7357 8.03254C19.7155 7.56776 19.601 7.11195 19.399 6.69287C19.2512 6.38462 19.0478 6.10629 18.799 5.87187C18.3319 5.4271 17.7346 5.14359 17.0947 5.06287C16.7677 5.01554 16.7027 5.00154 15.028 4.99854L12.752 4.99987Z" fill="url(#paint0_radial_358_3448)"/>
<path d="M12.752 4.99987C9.82967 4.99987 8.97467 5.00287 8.80867 5.01654C8.32986 5.03571 7.86022 5.15386 7.42933 5.36354C7.12804 5.50999 6.85558 5.70951 6.625 5.95254C6.17894 6.41834 5.89459 7.01532 5.814 7.6552C5.76667 7.98287 5.753 8.04954 5.75 9.72187C5.75 10.2795 5.75 11.0132 5.75 11.9972C5.75 14.9179 5.75333 15.7722 5.76733 15.9379C5.78716 16.4065 5.90049 16.8664 6.10067 17.2905C6.28756 17.6734 6.55519 18.0113 6.88514 18.2809C7.21509 18.5505 7.59952 18.7454 8.012 18.8522C8.34527 18.9316 8.68586 18.9763 9.02833 18.9855C9.20167 18.9932 10.9687 18.9985 12.7367 18.9985C14.5047 18.9985 16.2727 18.9965 16.4417 18.9879C16.7967 18.9811 17.1499 18.9349 17.4947 18.8499C17.908 18.7439 18.2931 18.5489 18.6233 18.2786C18.9534 18.0083 19.2205 17.6691 19.406 17.2849C19.6031 16.8691 19.7153 16.4182 19.736 15.9585C19.7453 15.8379 19.7493 13.9145 19.7493 11.9939C19.7493 10.0732 19.745 8.1532 19.7357 8.03254C19.7155 7.56776 19.601 7.11195 19.399 6.69287C19.2512 6.38462 19.0478 6.10629 18.799 5.87187C18.3319 5.4271 17.7346 5.14359 17.0947 5.06287C16.7677 5.01554 16.7027 5.00154 15.028 4.99854L12.752 4.99987Z" fill="url(#paint1_radial_358_3448)"/>
<path d="M12.7487 6.8309C11.3451 6.8309 11.1691 6.8369 10.6177 6.8619C10.189 6.87048 9.76492 6.95175 9.36341 7.10224C9.01997 7.23496 8.70807 7.43799 8.44769 7.69831C8.18731 7.95863 7.98421 8.27049 7.85141 8.6139C7.70064 9.01556 7.61937 9.43996 7.61108 9.8689C7.58641 10.4202 7.58008 10.5966 7.58008 12.0022C7.58008 13.4079 7.58641 13.5819 7.61141 14.1332C7.62004 14.562 7.70119 14.9862 7.85141 15.3879C7.98408 15.7312 8.18693 16.0429 8.44701 16.3033C8.70708 16.5637 9.01864 16.7669 9.36174 16.8999C9.76343 17.0501 10.1876 17.1313 10.6164 17.1399C11.1677 17.1649 11.3437 17.1712 12.7471 17.1712C14.1504 17.1712 14.3264 17.1649 14.8777 17.1399C15.3066 17.1312 15.7309 17.0501 16.1327 16.8999C16.476 16.7668 16.7876 16.5635 17.0479 16.3031C17.3081 16.0427 17.5112 15.7309 17.6441 15.3876C17.7937 14.9856 17.875 14.5614 17.8844 14.1326C17.9091 13.5812 17.9154 13.4056 17.9154 12.0016C17.9154 10.5976 17.9091 10.4212 17.8844 9.8699C17.875 9.44119 17.7938 9.01708 17.6441 8.61524C17.5114 8.2718 17.3083 7.95989 17.048 7.69951C16.7877 7.43913 16.4758 7.23603 16.1324 7.10324C15.7305 6.95286 15.3061 6.8716 14.8771 6.8629C14.3257 6.8379 14.1501 6.8319 12.7461 6.8319L12.7487 6.8309ZM12.2851 7.76424H12.7487C14.1287 7.76424 14.2924 7.7689 14.8371 7.7939C15.1648 7.79783 15.4894 7.85804 15.7967 7.9719C16.0196 8.05798 16.2219 8.18973 16.3908 8.35868C16.5597 8.52762 16.6914 8.73003 16.7774 8.9529C16.8913 9.26023 16.9515 9.58485 16.9554 9.91257C16.9801 10.4576 16.9857 10.6212 16.9857 12.0009C16.9857 13.3806 16.9801 13.5442 16.9554 14.0892C16.9515 14.417 16.8913 14.7416 16.7774 15.0489C16.6913 15.2717 16.5596 15.474 16.3907 15.6429C16.2219 15.8118 16.0195 15.9435 15.7967 16.0296C15.4895 16.1436 15.1648 16.2038 14.8371 16.2076C14.2924 16.2322 14.1287 16.2376 12.7487 16.2376C11.3687 16.2376 11.2051 16.2322 10.6604 16.2076C10.3327 16.2035 10.0081 16.1432 9.70074 16.0292C9.47788 15.9432 9.27547 15.8116 9.10652 15.6427C8.93757 15.4738 8.80583 15.2714 8.71974 15.0486C8.60555 14.7413 8.54533 14.4167 8.54174 14.0889C8.51674 13.5439 8.51174 13.3802 8.51174 11.9996C8.51174 10.6189 8.51674 10.4562 8.54174 9.91124C8.54554 9.5835 8.60575 9.25887 8.71974 8.95157C8.80566 8.72856 8.93734 8.52601 9.1063 8.35699C9.27526 8.18797 9.47776 8.05622 9.70074 7.97024C10.008 7.85588 10.3326 7.79555 10.6604 7.7919C11.1371 7.77024 11.3221 7.7639 12.2851 7.7629V7.76424ZM15.5074 8.62257C15.3847 8.62257 15.2648 8.65896 15.1627 8.72714C15.0607 8.79531 14.9812 8.89222 14.9343 9.00559C14.8873 9.11896 14.8751 9.2437 14.899 9.36405C14.923 9.48439 14.9821 9.59492 15.0689 9.68166C15.1557 9.7684 15.2662 9.82746 15.3866 9.85136C15.5069 9.87525 15.6317 9.86292 15.745 9.81592C15.8584 9.76892 15.9552 9.68936 16.0234 9.5873C16.0915 9.48524 16.1278 9.36527 16.1277 9.24257C16.1277 9.16112 16.1117 9.08047 16.0805 9.00523C16.0493 8.92998 16.0036 8.86162 15.946 8.80404C15.8884 8.74647 15.82 8.70081 15.7448 8.66967C15.6695 8.63853 15.5889 8.62252 15.5074 8.62257ZM12.7487 9.34557C12.2236 9.34517 11.7101 9.50054 11.2733 9.79201C10.8365 10.0835 10.4959 10.498 10.2947 10.983C10.0935 11.4681 10.0406 12.0019 10.1429 12.517C10.2451 13.0321 10.4978 13.5053 10.869 13.8768C11.2402 14.2482 11.7133 14.5012 12.2283 14.6038C12.7433 14.7063 13.2772 14.6538 13.7624 14.4529C14.2476 14.252 14.6623 13.9117 14.954 13.4751C15.2458 13.0384 15.4015 12.525 15.4014 11.9999C15.4013 11.2962 15.1219 10.6214 14.6245 10.1237C14.1271 9.62597 13.4524 9.3461 12.7487 9.34557ZM12.7487 10.2789C13.0897 10.279 13.4229 10.3802 13.7063 10.5697C13.9897 10.7592 14.2106 11.0285 14.3409 11.3435C14.4712 11.6586 14.5051 12.0052 14.4384 12.3395C14.3717 12.6738 14.2073 12.9809 13.966 13.2218C13.7248 13.4626 13.4175 13.6266 13.0831 13.6928C12.7486 13.759 12.4021 13.7245 12.0872 13.5937C11.7724 13.4629 11.5034 13.2416 11.3144 12.9579C11.1253 12.6742 11.0246 12.3408 11.0251 11.9999C11.0251 11.7736 11.0697 11.5495 11.1564 11.3405C11.243 11.1314 11.37 10.9415 11.5301 10.7815C11.6901 10.6216 11.8802 10.4947 12.0893 10.4082C12.2984 10.3216 12.5224 10.2771 12.7487 10.2772V10.2789Z" fill="white"/>
<defs>
<radialGradient id="paint0_radial_358_3448" cx="0" cy="0" r="1" gradientUnits="userSpaceOnUse" gradientTransform="translate(9.50002 20.103) rotate(-90) scale(13.8784 12.9055)">
<stop stop-color="#FFDD55"/>
<stop offset="0.1" stop-color="#FFDD55"/>
<stop offset="0.5" stop-color="#FF543E"/>
<stop offset="1" stop-color="#C837AB"/>
</radialGradient>
<radialGradient id="paint1_radial_358_3448" cx="0" cy="0" r="1" gradientUnits="userSpaceOnUse" gradientTransform="translate(3.3824 5.94739) rotate(78.6774) scale(6.20256 25.5665)">
<stop stop-color="#3771C8"/>
<stop offset="0.128" stop-color="#3771C8"/>
<stop offset="1" stop-color="#6600FF" stop-opacity="0"/>
</radialGradient>
</defs>
</svg>
