<svg width="16" height="16" viewBox="0 0 16 16" fill="none" xmlns="http://www.w3.org/2000/svg">
<g clip-path="url(#clip0_358_3592)">
<path d="M3.05398 5.73797L1.33398 5.63597C2.56665 2.46931 6.10598 0.666639 9.55598 1.56264C13.2313 2.51797 15.4147 6.17464 14.432 9.7293C13.6193 12.67 10.896 14.6206 7.89865 14.6666" stroke="#808080" stroke-width="1.5" stroke-linecap="round" stroke-linejoin="round"/>
<path d="M8.00065 14.6666C4.33398 14.6666 1.33398 11.3333 1.33398 7.33329M9.06998 6.48129C8.83532 6.23462 8.26132 5.65662 7.35332 6.06795C6.44598 6.47795 6.30198 7.79862 7.67465 7.93929C8.29465 8.00262 8.69932 7.86595 9.06998 8.25262C9.44065 8.64062 9.50932 9.71795 8.56265 10.0086C7.61598 10.2993 7.00198 9.81928 6.83732 9.66928M7.93932 5.34662V5.87329M7.93932 10.098V10.68" stroke="#808080" stroke-width="1.5" stroke-linecap="round" stroke-linejoin="round"/>
</g>
<defs>
<clipPath id="clip0_358_3592">
<rect width="16" height="16" fill="white"/>
</clipPath>
</defs>
</svg>
