<svg width="36" height="37" viewBox="0 0 36 37" fill="none" xmlns="http://www.w3.org/2000/svg">
<g clip-path="url(#clip0_81_1212)">
<path fill-rule="evenodd" clip-rule="evenodd" d="M17.5865 -0.370347C17.8611 -0.450483 18.1528 -0.450443 18.4274 -0.370234L31.9206 3.57177C32.5603 3.75865 33 4.34516 33 5.01158V13.0951C32.9999 17.5527 31.5972 21.8973 28.9905 25.5133C26.3839 29.1294 22.7055 31.8335 18.4764 33.2427C18.1687 33.3452 17.836 33.3452 17.5283 33.2427C13.298 31.8338 9.61837 29.1293 7.01083 25.5125C4.40329 21.8957 3.00006 17.5501 3 13.0914V5.01158C3 4.34501 3.43988 3.7584 4.07975 3.57165L17.5865 -0.370347ZM6 6.13638V13.0913C6 13.0913 6 13.0913 6 13.0913C6.00006 16.9203 7.20509 20.6521 9.44433 23.7581C11.5856 26.7281 14.5687 28.9818 18.0021 30.2313C21.4344 28.9817 24.4164 26.7284 26.5569 23.7591C28.7953 20.6538 29.9999 16.923 30 13.0951V6.13606L18.0065 2.63222L6 6.13638Z" fill="white"/>
</g>
<defs>
<clipPath id="clip0_81_1212">
<rect width="36" height="36" fill="white" transform="translate(0 0.0695801)"/>
</clipPath>
</defs>
</svg>
