<svg width="24" height="24" viewBox="0 0 24 24" fill="none" xmlns="http://www.w3.org/2000/svg">
<rect x="0.0966797" y="0.613281" width="23.3356" height="23.3356" rx="7.77854" fill="#013659" fill-opacity="0.08"/>
<path d="M11.0423 18.0679C10.5426 17.9972 10.2535 17.5543 10.2354 17.0501C10.2136 16.4425 10.1888 15.4376 10.1784 13.8673C8.60811 13.8569 7.60321 13.8321 6.99567 13.8103C6.4914 13.7922 6.04859 13.5031 5.97783 13.0035C5.94982 12.8057 5.93066 12.5662 5.93066 12.2812C5.93066 11.9961 5.94982 11.7566 5.97783 11.5589C6.04859 11.0592 6.4914 10.7702 6.99567 10.752C7.60321 10.7302 8.60811 10.7054 10.1784 10.6951C10.1888 9.12471 10.2136 8.11982 10.2354 7.51227C10.2535 7.008 10.5426 6.56519 11.0423 6.49443C11.24 6.46642 11.4795 6.44727 11.7646 6.44727C12.0496 6.44727 12.2891 6.46642 12.4869 6.49443C12.9865 6.56519 13.2756 7.008 13.2937 7.51227C13.3155 8.11982 13.3403 9.12471 13.3507 10.6951C14.921 10.7054 15.9259 10.7302 16.5335 10.752C17.0377 10.7702 17.4806 11.0592 17.5513 11.5589C17.5793 11.7566 17.5985 11.9961 17.5985 12.2812C17.5985 12.5662 17.5793 12.8057 17.5513 13.0035C17.4806 13.5031 17.0377 13.7922 16.5335 13.8103C15.9259 13.8321 14.921 13.8569 13.3507 13.8673C13.3403 15.4376 13.3155 16.4425 13.2937 17.0501C13.2756 17.5543 12.9865 17.9972 12.4869 18.0679C12.2891 18.0959 12.0496 18.1151 11.7646 18.1151C11.4795 18.1151 11.24 18.0959 11.0423 18.0679Z" fill="#081021"/>
</svg>
