<svg width="24" height="24" viewBox="0 0 24 24" fill="none" xmlns="http://www.w3.org/2000/svg">
<path d="M14.7484 16.5003C16.0584 16.5003 16.5674 17.0833 16.9544 18.3753L17.0224 18.6123C17.2044 19.2693 17.3144 19.4663 17.5354 19.5573C17.7944 19.6643 17.9664 19.6493 18.2384 19.5093L18.3854 19.4273C18.4384 19.3953 18.4954 19.3583 18.5614 19.3153L19.2244 18.8643C19.8404 18.4593 20.3944 18.1913 21.0674 18.0233C21.1635 17.9978 21.2637 17.9916 21.3621 18.0051C21.4606 18.0187 21.5554 18.0517 21.6411 18.1022C21.7267 18.1527 21.8014 18.2197 21.8609 18.2994C21.9204 18.379 21.9634 18.4697 21.9876 18.5661C22.0117 18.6626 22.0164 18.7629 22.0014 18.8611C21.9865 18.9594 21.9521 19.0537 21.9003 19.1386C21.8486 19.2235 21.7805 19.2972 21.7 19.3556C21.6195 19.4139 21.5282 19.4556 21.4314 19.4783C21.0263 19.5812 20.6397 19.7465 20.2854 19.9683L19.9874 20.1583L19.5074 20.4863C19.3207 20.6174 19.126 20.7366 18.9244 20.8433C18.2814 21.1733 17.6544 21.2293 16.9634 20.9433C16.2184 20.6373 15.9184 20.1643 15.6374 19.2233L15.4814 18.6803C15.3004 18.0913 15.1764 18.0003 14.7494 18.0003C14.4394 18.0003 14.1194 18.1553 13.6804 18.5233L13.4964 18.6843L12.5754 19.5593C11.1674 20.8833 9.96638 21.5263 8.24738 21.5263C6.56138 21.5263 5.10338 21.2723 3.87938 20.7573L6.82638 19.9533C7.27338 20.0013 7.74738 20.0263 8.24738 20.0263C9.43038 20.0263 10.2794 19.6113 11.3344 18.6633L11.5924 18.4243L12.1244 17.9143C12.3604 17.6873 12.5384 17.5243 12.7164 17.3743C13.4004 16.8013 14.0214 16.5003 14.7494 16.5003H14.7484ZM19.0294 2.97032C19.7001 3.64145 20.0769 4.55147 20.0769 5.50032C20.0769 6.44917 19.7001 7.35919 19.0294 8.03032L18.7414 8.32032C19.8924 9.72032 19.8514 11.2063 18.7804 12.2803L16.7784 14.2803C16.6376 14.4209 16.4466 14.4997 16.2477 14.4996C16.0487 14.4994 15.8579 14.4201 15.7174 14.2793C15.5768 14.1385 15.498 13.9476 15.4981 13.7486C15.4983 13.5496 15.5776 13.3589 15.7184 13.2183L17.7174 11.2203C18.2024 10.7333 18.2574 10.1303 17.6774 9.38132L9.06138 18.0003C8.78425 18.2774 8.43954 18.4774 8.06138 18.5803L2.94638 19.9753C2.81887 20.0099 2.68448 20.0102 2.55682 19.9762C2.42916 19.9421 2.31275 19.875 2.21938 19.7815C2.12601 19.6881 2.05899 19.5716 2.0251 19.4439C1.9912 19.3162 1.99165 19.1818 2.02638 19.0543L3.42038 13.9383C3.52348 13.5605 3.7234 13.2162 4.00038 12.9393L13.9684 2.97032C14.3006 2.63793 14.6951 2.37426 15.1293 2.19436C15.5635 2.01447 16.0289 1.92188 16.4989 1.92188C16.9689 1.92188 17.4342 2.01447 17.8684 2.19436C18.3026 2.37426 18.6971 2.63793 19.0294 2.97032Z" fill="#1E3F64"/>
</svg>
