<svg width="14" height="14" viewBox="0 0 14 14" fill="none" xmlns="http://www.w3.org/2000/svg">
<g clip-path="url(#clip0_1951_112292)">
<path d="M13.1176 0.144531H0.885064C0.722851 0.144531 0.567281 0.20897 0.452579 0.323673C0.337877 0.438375 0.273438 0.593945 0.273438 0.756158V12.9887C0.273438 13.1509 0.337877 13.3065 0.452579 13.4212C0.567281 13.5359 0.722851 13.6003 0.885064 13.6003H13.1176C13.2798 13.6003 13.4354 13.5359 13.5501 13.4212C13.6648 13.3065 13.7292 13.1509 13.7292 12.9887V0.756158C13.7292 0.593945 13.6648 0.438375 13.5501 0.323673C13.4354 0.20897 13.2798 0.144531 13.1176 0.144531ZM9.27047 9.14156L7.43559 10.9764C7.37873 11.0338 7.31108 11.0793 7.23655 11.1103C7.16202 11.1414 7.08208 11.1574 7.00133 11.1574C6.92059 11.1574 6.84065 11.1414 6.76612 11.1103C6.69158 11.0793 6.62394 11.0338 6.56708 10.9764L4.7322 9.14156C4.61703 9.02639 4.55232 8.87019 4.55232 8.70731C4.55232 8.54443 4.61703 8.38822 4.7322 8.27305C4.84737 8.15788 5.00358 8.09318 5.16645 8.09318C5.32933 8.09318 5.48554 8.15788 5.60071 8.27305L7.00133 9.67979L8.40196 8.27305C8.51713 8.15788 8.67334 8.09318 8.83622 8.09318C8.99909 8.09318 9.1553 8.15788 9.27047 8.27305C9.38564 8.38822 9.45034 8.54443 9.45034 8.70731C9.45034 8.87019 9.38564 9.02639 9.27047 9.14156ZM9.27047 5.4718C9.21361 5.52913 9.14596 5.57463 9.07143 5.60568C8.9969 5.63673 8.91696 5.65272 8.83622 5.65272C8.75547 5.65272 8.67553 5.63673 8.601 5.60568C8.52646 5.57463 8.45882 5.52913 8.40196 5.4718L7.00133 4.06506L5.60071 5.4718C5.48554 5.58697 5.32933 5.65168 5.16645 5.65168C5.00358 5.65168 4.84737 5.58697 4.7322 5.4718C4.61703 5.35663 4.55232 5.20042 4.55232 5.03755C4.55232 4.87467 4.61703 4.71846 4.7322 4.60329L6.56708 2.76841C6.62394 2.71108 6.69158 2.66558 6.76612 2.63453C6.84065 2.60348 6.92059 2.58749 7.00133 2.58749C7.08208 2.58749 7.16202 2.60348 7.23655 2.63453C7.31108 2.66558 7.37873 2.71108 7.43559 2.76841L9.27047 4.60329C9.3278 4.66015 9.3733 4.7278 9.40435 4.80233C9.4354 4.87686 9.45139 4.9568 9.45139 5.03755C9.45139 5.11829 9.4354 5.19823 9.40435 5.27276C9.3733 5.3473 9.3278 5.41494 9.27047 5.4718Z" fill="#FFBA39"/>
</g>
<defs>
<clipPath id="clip0_1951_112292">
<rect x="0.273438" y="0.144531" width="13.4558" height="13.4558" rx="1.92226" fill="white"/>
</clipPath>
</defs>
</svg>
