<svg width="17" height="19" viewBox="0 0 17 19" fill="none" xmlns="http://www.w3.org/2000/svg">
<path d="M8.63009 3.45203L14.6281 7.89497V16.7808H2.63213V7.89497L8.63009 3.45203ZM8.63009 0.983734L0.632812 6.90765V18.7555H16.6274V6.90765L8.63009 0.983734ZM8.13026 7.40131V10.3633H7.63043V7.40131H6.63077V10.3633H6.13094V7.40131H5.13128V10.3633C5.13128 11.1827 5.80106 11.8442 6.63077 11.8442V15.7935H7.63043V11.8442C8.46015 11.8442 9.12992 11.1827 9.12992 10.3633V7.40131H8.13026ZM9.62975 9.37594V12.3379H10.6294V15.7935H11.6291V7.40131C10.5294 7.40131 9.62975 8.28989 9.62975 9.37594Z" fill="#878787"/>
</svg>
