<svg width="19" height="19" viewBox="0 0 19 19" fill="none" xmlns="http://www.w3.org/2000/svg">
<path d="M11.8128 5.37344L9.36915 2.23673L11.1197 1.89018L13.5544 5.02689L11.8128 5.37344ZM17.9174 4.16496L17.2243 0.681702L13.7321 1.3748L16.1668 4.5204L17.9174 4.16496ZM9.20032 5.89771L6.76559 2.74322L5.01507 3.10754L7.45869 6.24425L9.20032 5.89771ZM2.40263 3.63181L1.53181 3.80064C1.30291 3.84578 1.08517 3.93566 0.891076 4.06513C0.696982 4.19459 0.530354 4.3611 0.400746 4.5551C0.271138 4.7491 0.1811 4.96677 0.135795 5.19564C0.0904893 5.42451 0.0908081 5.66007 0.136733 5.88882L0.483281 7.63045L4.83736 6.76852L2.40263 3.63181ZM2.26046 16.5163V9.40762H16.4778V10.3762C17.1176 10.4828 17.713 10.705 18.255 11.016V7.63045H0.483281V16.5163C0.483281 16.9877 0.670519 17.4397 1.0038 17.773C1.33709 18.1063 1.78912 18.2935 2.26046 18.2935H10.9775C10.6665 17.7515 10.4532 17.1561 10.3377 16.5163H2.26046ZM17.6686 12.8198L14.4785 16.0098L13.0657 14.597L12.0349 15.6277L14.4785 18.2935L18.6993 14.0727L17.6686 12.8198Z" fill="#878787"/>
</svg>
