<svg width="20" height="21" viewBox="0 0 20 21" fill="none" xmlns="http://www.w3.org/2000/svg">
<path d="M17 2.73077H15V1.73077C15 1.46556 14.8946 1.2112 14.7071 1.02367C14.5196 0.836131 14.2652 0.730774 14 0.730774C13.7348 0.730774 13.4804 0.836131 13.2929 1.02367C13.1054 1.2112 13 1.46556 13 1.73077V2.73077H7V1.73077C7 1.46556 6.89464 1.2112 6.70711 1.02367C6.51957 0.836131 6.26522 0.730774 6 0.730774C5.73478 0.730774 5.48043 0.836131 5.29289 1.02367C5.10536 1.2112 5 1.46556 5 1.73077V2.73077H3C2.20435 2.73077 1.44129 3.04684 0.87868 3.60945C0.316071 4.17206 0 4.93512 0 5.73077V17.7308C0 18.5264 0.316071 19.2895 0.87868 19.8521C1.44129 20.4147 2.20435 20.7308 3 20.7308H17C17.7956 20.7308 18.5587 20.4147 19.1213 19.8521C19.6839 19.2895 20 18.5264 20 17.7308V5.73077C20 4.93512 19.6839 4.17206 19.1213 3.60945C18.5587 3.04684 17.7956 2.73077 17 2.73077ZM18 17.7308C18 17.996 17.8946 18.2503 17.7071 18.4379C17.5196 18.6254 17.2652 18.7308 17 18.7308H3C2.73478 18.7308 2.48043 18.6254 2.29289 18.4379C2.10536 18.2503 2 17.996 2 17.7308V10.7308H18V17.7308ZM18 8.73077H2V5.73077C2 5.46556 2.10536 5.2112 2.29289 5.02367C2.48043 4.83613 2.73478 4.73077 3 4.73077H5V5.73077C5 5.99599 5.10536 6.25034 5.29289 6.43788C5.48043 6.62542 5.73478 6.73077 6 6.73077C6.26522 6.73077 6.51957 6.62542 6.70711 6.43788C6.89464 6.25034 7 5.99599 7 5.73077V4.73077H13V5.73077C13 5.99599 13.1054 6.25034 13.2929 6.43788C13.4804 6.62542 13.7348 6.73077 14 6.73077C14.2652 6.73077 14.5196 6.62542 14.7071 6.43788C14.8946 6.25034 15 5.99599 15 5.73077V4.73077H17C17.2652 4.73077 17.5196 4.83613 17.7071 5.02367C17.8946 5.2112 18 5.46556 18 5.73077V8.73077Z" fill="black"/>
</svg>
