<svg width="22" height="22" viewBox="0 0 22 22" fill="none" xmlns="http://www.w3.org/2000/svg">
<path d="M20.6343 0.772483C19.6043 -0.257494 17.9343 -0.257494 16.9045 0.772483L7.61409 10.0629C7.46051 10.2165 7.35591 10.4121 7.31337 10.625L6.6215 14.0843C6.54932 14.4448 6.6622 14.8178 6.92222 15.0777C7.18243 15.3378 7.55516 15.4507 7.9159 15.3785L11.375 14.6866C11.5881 14.6441 11.7836 14.5395 11.9372 14.3859L21.2277 5.09544C22.2576 4.06546 22.2576 2.39542 21.2277 1.36545L20.6343 0.772483Z" fill="white"/>
<path d="M3.29999 4.40008C2.69247 4.40008 2.19987 4.89248 2.19987 5.50001V18.7C2.19987 19.3075 2.69247 19.8001 3.29999 19.8001H16.5C17.1075 19.8001 17.5999 19.3075 17.5999 18.7V12.1H19.8V18.7C19.8 20.5227 18.3225 22 16.5 22H3.29999C1.47745 22 0 20.5227 0 18.7V5.50001C0 3.67747 1.47745 2.20001 3.29999 2.20001H9.89998V4.40008H3.29999Z" fill="white"/>
</svg>
