<svg width="24" height="24" viewBox="0 0 24 24" fill="none" xmlns="http://www.w3.org/2000/svg">
<path d="M18.3643 7.05026L13.4146 12L18.3643 16.9497C18.7532 17.3387 18.7532 17.9751 18.3643 18.364C17.9754 18.7529 17.339 18.7529 16.9501 18.364L12.0004 13.4142L7.05062 18.364C6.66171 18.7529 6.02532 18.7529 5.63641 18.364C5.2475 17.9751 5.2475 17.3387 5.63641 16.9497L10.5862 12L5.63641 7.05026C5.2475 6.66135 5.2475 6.02495 5.63641 5.63604C6.02532 5.24713 6.66171 5.24713 7.05062 5.63604L12.0004 10.5858L16.9501 5.63604C17.339 5.24713 17.9754 5.24713 18.3643 5.63604C18.7532 6.02495 18.7532 6.66135 18.3643 7.05026Z" fill="#25282B"/>
</svg>
