<svg width="15" height="19" viewBox="0 0 15 19" fill="none" xmlns="http://www.w3.org/2000/svg">
<path d="M2.29866 18.2935C1.80994 18.2935 1.39141 18.1194 1.04309 17.771C0.69476 17.4227 0.520893 17.0045 0.521486 16.5164V5.85331C0.521486 5.36459 0.695649 4.94606 1.04397 4.59774C1.3923 4.24941 1.81053 4.07554 2.29866 4.07614H4.07583C4.07583 3.09869 4.42386 2.26194 5.11992 1.56588C5.81598 0.869819 6.65274 0.52179 7.63018 0.52179C8.60763 0.52179 9.44438 0.869819 10.1404 1.56588C10.8365 2.26194 11.1845 3.09869 11.1845 4.07614H12.9617C13.4504 4.07614 13.8689 4.2503 14.2173 4.59863C14.5656 4.94695 14.7395 5.36518 14.7389 5.85331V16.5164C14.7389 17.0051 14.5647 17.4236 14.2164 17.7719C13.8681 18.1203 13.4498 18.2941 12.9617 18.2935H2.29866ZM2.29866 16.5164H12.9617V5.85331H11.1845V7.63049C11.1845 7.88225 11.0992 8.09344 10.9286 8.26405C10.758 8.43466 10.5471 8.51966 10.2959 8.51907C10.0442 8.51907 9.83299 8.43377 9.66238 8.26316C9.49177 8.09255 9.40676 7.88166 9.40735 7.63049V5.85331H5.85301V7.63049C5.85301 7.88225 5.7677 8.09344 5.59709 8.26405C5.42649 8.43466 5.21559 8.51966 4.96442 8.51907C4.71265 8.51907 4.50147 8.43377 4.33086 8.26316C4.16025 8.09255 4.07524 7.88166 4.07583 7.63049V5.85331H2.29866V16.5164ZM5.85301 4.07614H9.40735C9.40735 3.58741 9.23319 3.16889 8.88487 2.82056C8.53654 2.47224 8.11831 2.29837 7.63018 2.29896C7.14146 2.29896 6.72293 2.47313 6.37461 2.82145C6.02628 3.16978 5.85241 3.58801 5.85301 4.07614Z" fill="#878787"/>
</svg>
