<svg width="18" height="19" viewBox="0 0 18 19" fill="none" xmlns="http://www.w3.org/2000/svg">
<path d="M7.11358 18.7555V13.1129L8.55753 8.98102H16.3327L17.7766 13.1129V18.7555H15.9994V17.4226H8.89075V18.7555H7.11358ZM8.89075 12.0911H15.9994L15.3774 10.3139H9.51276L8.89075 12.0911ZM9.77934 15.6454C10.0311 15.6454 10.2423 15.5601 10.4129 15.3895C10.5829 15.2195 10.6679 15.0086 10.6679 14.7568C10.6679 14.5051 10.5829 14.2942 10.4129 14.1242C10.2423 13.9535 10.0311 13.8682 9.77934 13.8682C9.52757 13.8682 9.31668 13.9535 9.14666 14.1242C8.97606 14.2942 8.89075 14.5051 8.89075 14.7568C8.89075 15.0086 8.97606 15.2195 9.14666 15.3895C9.31668 15.5601 9.52757 15.6454 9.77934 15.6454ZM15.1109 15.6454C15.3626 15.6454 15.5735 15.5601 15.7435 15.3895C15.9141 15.2195 15.9994 15.0086 15.9994 14.7568C15.9994 14.5051 15.9141 14.2942 15.7435 14.1242C15.5735 13.9535 15.3626 13.8682 15.1109 13.8682C14.8591 13.8682 14.6482 13.9535 14.4782 14.1242C14.3076 14.2942 14.2223 14.5051 14.2223 14.7568C14.2223 15.0086 14.3076 15.2195 14.4782 15.3895C14.6482 15.5601 14.8591 15.6454 15.1109 15.6454ZM3.55923 11.6468V9.8696H5.3364V11.6468H3.55923ZM8.00216 6.31526V4.53808H9.77934V6.31526H8.00216ZM3.55923 15.2011V13.424H5.3364V15.2011H3.55923ZM3.55923 18.7555V16.9783H5.3364V18.7555H3.55923ZM0.00488281 18.7555V6.31526H4.44782V0.983734H13.3337V7.20384H11.5565V2.76091H6.22499V8.09243H1.78206V18.7555H0.00488281ZM8.44646 16.0897H16.4437V13.424H8.44646V16.0897Z" fill="#878787"/>
</svg>
