<svg width="16" height="17" viewBox="0 0 16 17" fill="none" xmlns="http://www.w3.org/2000/svg">
<path fill-rule="evenodd" clip-rule="evenodd" d="M6.62971 2.66666H9.3716C10.5968 2.66665 11.5672 2.66664 12.3267 2.76875C13.1083 2.87383 13.7409 3.09524 14.2398 3.59415C14.7387 4.09306 14.9601 4.72569 15.0652 5.50731C15.1673 6.26679 15.1673 7.23721 15.1673 8.46238V8.5376C15.1673 9.76277 15.1673 10.7332 15.0652 11.4927C14.9601 12.2743 14.7387 12.9069 14.2398 13.4058C13.7409 13.9047 13.1083 14.1261 12.3267 14.2312C11.5672 14.3333 10.5968 14.3333 9.37159 14.3333H6.62971C5.40454 14.3333 4.43411 14.3333 3.67464 14.2312C2.89302 14.1261 2.26039 13.9047 1.76148 13.4058C1.26257 12.9069 1.04116 12.2743 0.936075 11.4927C0.833966 10.7332 0.833974 9.76277 0.833985 8.5376V8.46238C0.833974 7.23721 0.833966 6.26678 0.936075 5.50731C1.04116 4.72569 1.26257 4.09306 1.76148 3.59415C2.26039 3.09524 2.89302 2.87383 3.67464 2.76875C4.43411 2.66664 5.40453 2.66665 6.62971 2.66666ZM3.80788 3.75983C3.13716 3.85001 2.75073 4.01912 2.46859 4.30126C2.18645 4.5834 2.01733 4.96983 1.92716 5.64056C1.83505 6.32567 1.83398 7.22878 1.83398 8.49999C1.83398 9.7712 1.83505 10.6743 1.92716 11.3594C2.01733 12.0302 2.18645 12.4166 2.46859 12.6987C2.75073 12.9809 3.13716 13.15 3.80788 13.2402C4.49299 13.3323 5.3961 13.3333 6.66732 13.3333H9.33399C10.6052 13.3333 11.5083 13.3323 12.1934 13.2402C12.8641 13.15 13.2506 12.9809 13.5327 12.6987C13.8149 12.4166 13.984 12.0302 14.0741 11.3594C14.1663 10.6743 14.1673 9.7712 14.1673 8.49999C14.1673 7.22878 14.1663 6.32567 14.0741 5.64056C13.984 4.96983 13.8149 4.5834 13.5327 4.30126C13.2506 4.01912 12.8641 3.85001 12.1934 3.75983C11.5083 3.66772 10.6052 3.66666 9.33399 3.66666H6.66732C5.3961 3.66666 4.49299 3.66772 3.80788 3.75983ZM3.61654 5.51323C3.79332 5.30109 4.10861 5.27243 4.32074 5.44921L5.76001 6.6486C6.38198 7.16691 6.8138 7.5256 7.17837 7.76008C7.53128 7.98705 7.7706 8.06324 8.00065 8.06324C8.2307 8.06324 8.47002 7.98705 8.82293 7.76008C9.1875 7.5256 9.61932 7.16691 10.2413 6.6486L11.6806 5.44921C11.8927 5.27243 12.208 5.30109 12.3848 5.51323C12.5615 5.72537 12.5329 6.04065 12.3207 6.21743L10.8564 7.43771C10.2655 7.93014 9.78658 8.32927 9.36387 8.60114C8.92354 8.88434 8.4947 9.06324 8.00065 9.06324C7.5066 9.06324 7.07777 8.88434 6.63744 8.60114C6.21473 8.32927 5.73579 7.93015 5.14489 7.43771L3.68056 6.21743C3.46842 6.04065 3.43976 5.72537 3.61654 5.51323Z" fill="#808080"/>
</svg>
