<svg width="22" height="22" viewBox="0 0 22 22" fill="none" xmlns="http://www.w3.org/2000/svg">
<path d="M16.8389 3.74457H5.1392C4.80534 3.74457 4.48515 3.87983 4.24907 4.12061C4.013 4.36139 3.88037 4.68795 3.88037 5.02846V8.74496C3.88068 8.99168 3.95069 9.23309 4.08201 9.44029C4.21334 9.64749 4.40041 9.81172 4.62086 9.91331L9.25632 12.0619C8.56996 12.4537 8.03038 13.0665 7.7221 13.8045C7.41381 14.5425 7.35423 15.3639 7.5527 16.1402C7.75116 16.9164 8.19645 17.6035 8.81883 18.094C9.44121 18.5845 10.2055 18.8505 10.992 18.8505C11.7785 18.8505 12.5428 18.5845 13.1652 18.094C13.7876 17.6035 14.2329 16.9164 14.4314 16.1402C14.6298 15.3639 14.5702 14.5425 14.262 13.8045C13.9537 13.0665 13.4141 12.4537 12.7277 12.0619L17.3573 9.91331C17.5777 9.81172 17.7648 9.64749 17.8961 9.44029C18.0274 9.23309 18.0974 8.99168 18.0978 8.74496V5.02846C18.0978 4.68795 17.9651 4.36139 17.7291 4.12061C17.493 3.87983 17.1728 3.74457 16.8389 3.74457ZM13.3586 4.95294V10.4412L10.9891 11.5393L8.6195 10.4412V4.95294H13.3586ZM5.06515 8.74496V5.02846C5.06515 5.00843 5.07296 4.98922 5.08684 4.97506C5.10073 4.9609 5.11956 4.95294 5.1392 4.95294H7.43472V9.89141L5.10884 8.81369C5.09585 8.80773 5.08482 8.79808 5.07707 8.78589C5.06932 8.7737 5.06518 8.75949 5.06515 8.74496ZM10.9891 17.6408C10.5204 17.6408 10.0623 17.4991 9.67261 17.2336C9.28293 16.968 8.97922 16.5906 8.79987 16.149C8.62053 15.7073 8.5736 15.2214 8.66503 14.7526C8.75646 14.2838 8.98214 13.8532 9.31353 13.5152C9.64492 13.1772 10.0671 12.947 10.5268 12.8538C10.9864 12.7605 11.4629 12.8084 11.8959 12.9913C12.3288 13.1742 12.6989 13.484 12.9593 13.8814C13.2197 14.2789 13.3586 14.7461 13.3586 15.2241C13.3586 15.8651 13.109 16.4798 12.6646 16.933C12.2202 17.3862 11.6175 17.6408 10.9891 17.6408ZM16.913 8.74496C16.9129 8.75949 16.9088 8.7737 16.9011 8.78589C16.8933 8.79808 16.8823 8.80773 16.8693 8.81369L14.5434 9.89141V4.95294H16.8389C16.8586 4.95294 16.8774 4.9609 16.8913 4.97506C16.9052 4.98922 16.913 5.00843 16.913 5.02846V8.74496Z" fill="#525256"/>
</svg>
