<svg width="25" height="25" viewBox="0 0 25 25" fill="none" xmlns="http://www.w3.org/2000/svg">
<path d="M12.7161 3.07968H5.57688C5.0359 3.07968 4.51708 3.29459 4.13454 3.67712C3.75201 4.05965 3.53711 4.57847 3.53711 5.11945V19.3979C3.53711 19.9388 3.75201 20.4577 4.13454 20.8402C4.51708 21.2227 5.0359 21.4376 5.57688 21.4376H19.8553C20.3963 21.4376 20.9151 21.2227 21.2976 20.8402C21.6802 20.4577 21.8951 19.9388 21.8951 19.3979V12.2587" stroke="#808080" stroke-width="2.03977" stroke-linecap="round" stroke-linejoin="round"/>
<path d="M19.2171 2.69718C19.6228 2.29145 20.1731 2.06351 20.7469 2.06351C21.3207 2.06351 21.871 2.29145 22.2767 2.69718C22.6825 3.10292 22.9104 3.65322 22.9104 4.22701C22.9104 4.80081 22.6825 5.35111 22.2767 5.75684L12.7153 15.3183L8.63574 16.3382L9.65563 12.2586L19.2171 2.69718Z" stroke="#808080" stroke-width="2.03977" stroke-linecap="round" stroke-linejoin="round"/>
</svg>
