<svg width="19" height="14" viewBox="0 0 19 14" fill="none" xmlns="http://www.w3.org/2000/svg">
<path d="M7.88829 0.649475V2.2349L9.36927 3.16792V2.05251H16.7742V12.5752H13.0717V13.9783H18.2551V0.649475H7.88829ZM6.03707 2.75402L0.483398 6.2616V13.9783H11.5907V6.2616L6.03707 2.75402ZM10.8502 3.45554V4.10795L12.0424 4.85857H12.3312V3.45554H10.8502ZM13.8122 3.45554V4.85857H15.2932V3.45554H13.8122ZM6.03707 4.50781L10.1098 6.96312V12.5752H7.88829V8.36615H4.18584V12.5752H1.96438V6.96312L6.03707 4.50781ZM13.8122 6.2616V7.66463H15.2932V6.2616H13.8122ZM13.8122 9.06767V10.4707H15.2932V9.06767H13.8122Z" fill="#878787"/>
</svg>
