<svg width="19" height="20" viewBox="0 0 19 20" fill="none" xmlns="http://www.w3.org/2000/svg">
<g clip-path="url(#clip0_519_7285)">
<path d="M9.36443 9.65239C10.6218 9.65239 11.7104 9.20142 12.6002 8.31167C13.4897 7.42206 13.9408 6.33356 13.9408 5.07605C13.9408 3.81897 13.4898 2.73033 12.6 1.84043C11.7103 0.950966 10.6217 0.5 9.36443 0.5C8.10691 0.5 7.01842 0.950966 6.12881 1.84058C5.2392 2.73019 4.78809 3.81882 4.78809 5.07605C4.78809 6.33356 5.2392 7.4222 6.12881 8.31181C7.01871 9.20128 8.10735 9.65239 9.36443 9.65239ZM6.91622 2.62785C7.59883 1.94524 8.39958 1.61343 9.36443 1.61343C10.3291 1.61343 11.13 1.94524 11.8128 2.62785C12.4954 3.3106 12.8273 4.1115 12.8273 5.07605C12.8273 6.04089 12.4954 6.84164 11.8128 7.5244C11.13 8.20715 10.3291 8.53896 9.36443 8.53896C8.39987 8.53896 7.59912 8.20701 6.91622 7.5244C6.23347 6.84179 5.90151 6.04089 5.90151 5.07605C5.90151 4.1115 6.23347 3.3106 6.91622 2.62785Z" fill="#8061D9"/>
<path d="M17.372 15.1101C17.3463 14.7398 17.2944 14.336 17.218 13.9095C17.1409 13.4799 17.0416 13.0737 16.9227 12.7024C16.7998 12.3187 16.633 11.9398 16.4264 11.5767C16.2123 11.1998 15.9607 10.8716 15.6783 10.6016C15.383 10.319 15.0215 10.0919 14.6034 9.92619C14.1868 9.76138 13.7251 9.67788 13.2312 9.67788C13.0373 9.67788 12.8497 9.75746 12.4874 9.99331C12.2645 10.1387 12.0037 10.3069 11.7126 10.4928C11.4638 10.6514 11.1266 10.8 10.7101 10.9345C10.3038 11.066 9.89124 11.1327 9.48391 11.1327C9.07687 11.1327 8.66431 11.066 8.25771 10.9345C7.84167 10.8001 7.50436 10.6516 7.2559 10.493C6.96758 10.3087 6.70665 10.1406 6.48037 9.99316C6.11841 9.75732 5.93083 9.67773 5.73688 9.67773C5.24286 9.67773 4.78131 9.76138 4.36485 9.92634C3.94707 10.0917 3.5854 10.3189 3.28983 10.6017C3.00745 10.8719 2.75581 11.1999 2.54185 11.5767C2.33557 11.9398 2.16858 12.3186 2.04565 12.7026C1.92693 13.0738 1.82764 13.4799 1.75052 13.9095C1.67398 14.3354 1.62223 14.7394 1.59657 15.1105C1.57135 15.4733 1.55859 15.8509 1.55859 16.2325C1.55859 17.2243 1.87388 18.0272 2.49561 18.6194C3.10965 19.2037 3.922 19.5 4.91018 19.5H14.0588C15.0467 19.5 15.859 19.2037 16.4732 18.6194C17.0951 18.0276 17.4104 17.2244 17.4104 16.2323C17.4102 15.8495 17.3973 15.4719 17.372 15.1101ZM15.7055 17.8127C15.2998 18.1988 14.7611 18.3866 14.0587 18.3866H4.91018C4.20757 18.3866 3.6689 18.1988 3.26331 17.8128C2.86539 17.434 2.67202 16.917 2.67202 16.2325C2.67202 15.8764 2.68376 15.5249 2.70724 15.1875C2.73015 14.8564 2.77697 14.4927 2.84641 14.1062C2.91497 13.7245 3.00224 13.3663 3.10603 13.0421C3.20561 12.7311 3.34144 12.4232 3.50988 12.1267C3.67064 11.844 3.85561 11.6015 4.05971 11.4061C4.25062 11.2233 4.49125 11.0737 4.77479 10.9615C5.03702 10.8577 5.33172 10.8009 5.65164 10.7923C5.69064 10.813 5.76007 10.8526 5.87256 10.926C6.10145 11.0751 6.36527 11.2453 6.65693 11.4316C6.98569 11.6412 7.40926 11.8305 7.91531 11.9939C8.43267 12.1612 8.96032 12.2461 9.48405 12.2461C10.0078 12.2461 10.5356 12.1612 11.0527 11.994C11.5591 11.8304 11.9826 11.6412 12.3118 11.4313C12.6102 11.2405 12.8667 11.0753 13.0956 10.926C13.208 10.8528 13.2775 10.813 13.3165 10.7923C13.6365 10.8009 13.9312 10.8577 14.1936 10.9615C14.477 11.0737 14.7176 11.2234 14.9085 11.4061C15.1126 11.6013 15.2976 11.8438 15.4584 12.1268C15.627 12.4232 15.7629 12.7313 15.8624 13.0419C15.9663 13.3666 16.0537 13.7247 16.1221 14.1061C16.1914 14.4933 16.2384 14.8571 16.2613 15.1876V15.1879C16.2849 15.5241 16.2968 15.8754 16.297 16.2325C16.2968 16.9171 16.1034 17.434 15.7055 17.8127Z" fill="#8061D9"/>
</g>
<defs>
<clipPath id="clip0_519_7285">
<rect width="19" height="19" fill="white" transform="translate(0 0.5)"/>
</clipPath>
</defs>
</svg>
