<svg width="16" height="16" viewBox="0 0 16 16" fill="none" xmlns="http://www.w3.org/2000/svg">
<g clip-path="url(#clip0_358_3576)">
<path d="M13.3331 1.33331H6.22201V3.55554H7.11089V2.2222H13.3331C13.5998 2.2222 13.7776 2.39998 13.7776 2.66665V7.55554C13.7776 7.8222 13.5998 7.99998 13.3331 7.99998H7.55534V11.1111H5.19978L3.55534 12.4V11.1111H2.22201C1.95534 11.1111 1.77756 10.9333 1.77756 10.6666V5.77776C1.77756 5.51109 1.95534 5.33331 2.22201 5.33331H7.99978V4.44442H2.22201C1.46645 4.44442 0.888672 5.0222 0.888672 5.77776V10.6666C0.888672 11.4222 1.46645 12 2.22201 12H2.66645V14.2666L5.46645 12H8.44423V8.88887H13.3331C14.0887 8.88887 14.6664 8.31109 14.6664 7.55554V2.66665C14.6664 1.91109 14.0887 1.33331 13.3331 1.33331Z" fill="#808080"/>
<path d="M2.75586 10.1778H3.82253L4.08919 9.46667H5.46697L5.73364 10.1778H6.8003L5.28919 6.22223H4.22253L2.75586 10.1778ZM4.75586 7.33334L5.2003 8.71112H4.31141L4.75586 7.33334Z" fill="#808080"/>
<path d="M8.88867 7.55558C9.37756 7.55558 10.0442 7.42224 10.6664 7.11113C11.2887 7.42224 11.9998 7.55558 12.4442 7.55558V6.66669C12.4442 6.66669 11.9998 6.66669 11.5109 6.48891C12.0442 5.95558 12.4442 5.15558 12.4442 4.00002V3.55558H11.1109V2.66669H10.222V3.55558H8.88867V4.44446H11.5109C11.422 5.24446 11.0664 5.73335 10.6664 6.04447C10.3998 5.82224 10.1331 5.51113 9.95534 5.11113H9.022C9.19978 5.68891 9.46645 6.13335 9.82201 6.48891C9.37756 6.66669 8.97756 6.66669 8.88867 6.66669V7.55558Z" fill="#808080"/>
</g>
<defs>
<clipPath id="clip0_358_3576">
<rect width="16" height="16" fill="white"/>
</clipPath>
</defs>
</svg>
