<svg width="16" height="16" viewBox="0 0 16 16" fill="none" xmlns="http://www.w3.org/2000/svg">
<path fill-rule="evenodd" clip-rule="evenodd" d="M6.00065 4.16666C4.98813 4.16666 4.16732 4.98747 4.16732 5.99999C4.16732 7.01251 4.98813 7.83332 6.00065 7.83332C7.01317 7.83332 7.83399 7.01251 7.83399 5.99999C7.83399 4.98747 7.01317 4.16666 6.00065 4.16666ZM5.16732 5.99999C5.16732 5.53975 5.54041 5.16666 6.00065 5.16666C6.46089 5.16666 6.83399 5.53975 6.83399 5.99999C6.83399 6.46023 6.46089 6.83332 6.00065 6.83332C5.54041 6.83332 5.16732 6.46023 5.16732 5.99999Z" fill="#808080"/>
<path fill-rule="evenodd" clip-rule="evenodd" d="M6.00065 8.16666C5.20348 8.16666 4.45706 8.32715 3.89143 8.60997C3.3557 8.87783 2.83399 9.34039 2.83399 9.99999L2.8339 10.0416C2.83288 10.3819 2.83116 10.9548 3.37414 11.3478C3.62611 11.5302 3.95858 11.6465 4.37045 11.7206C4.78612 11.7954 5.31879 11.8333 6.00065 11.8333C6.68251 11.8333 7.21518 11.7954 7.63086 11.7206C8.04272 11.6465 8.3752 11.5302 8.62717 11.3478C9.17015 10.9548 9.16843 10.3819 9.1674 10.0416L9.16732 9.99999C9.16732 9.34039 8.6456 8.87783 8.10988 8.60997C7.54425 8.32715 6.79782 8.16666 6.00065 8.16666ZM3.83399 9.99999C3.83399 9.92321 3.90922 9.7191 4.33864 9.50439C4.73815 9.30464 5.32506 9.16666 6.00065 9.16666C6.67624 9.16666 7.26315 9.30464 7.66266 9.50439C8.09208 9.7191 8.16732 9.92321 8.16732 9.99999C8.16732 10.403 8.14166 10.4648 8.0408 10.5378C7.95944 10.5967 7.79192 10.6756 7.45378 10.7364C7.11945 10.7966 6.65213 10.8333 6.00065 10.8333C5.34918 10.8333 4.88185 10.7966 4.54752 10.7364C4.20939 10.6756 4.04186 10.5967 3.9605 10.5378C3.85964 10.4648 3.83399 10.403 3.83399 9.99999Z" fill="#808080"/>
<path d="M12.6673 8.49999C12.9435 8.49999 13.1673 8.27613 13.1673 7.99999C13.1673 7.72385 12.9435 7.49999 12.6673 7.49999H10.0007C9.72451 7.49999 9.50065 7.72385 9.50065 7.99999C9.50065 8.27613 9.72451 8.49999 10.0007 8.49999H12.6673Z" fill="#808080"/>
<path d="M13.1673 5.99999C13.1673 6.27613 12.9435 6.49999 12.6673 6.49999H9.33398C9.05784 6.49999 8.83398 6.27613 8.83398 5.99999C8.83398 5.72385 9.05784 5.49999 9.33398 5.49999H12.6673C12.9435 5.49999 13.1673 5.72385 13.1673 5.99999Z" fill="#808080"/>
<path d="M12.6673 10.5C12.9435 10.5 13.1673 10.2761 13.1673 9.99999C13.1673 9.72385 12.9435 9.49999 12.6673 9.49999H10.6673C10.3912 9.49999 10.1673 9.72385 10.1673 9.99999C10.1673 10.2761 10.3912 10.5 10.6673 10.5H12.6673Z" fill="#808080"/>
<path fill-rule="evenodd" clip-rule="evenodd" d="M6.62971 2.16666H9.3716C10.5968 2.16665 11.5672 2.16664 12.3267 2.26875C13.1083 2.37383 13.7409 2.59524 14.2398 3.09415C14.7387 3.59306 14.9601 4.22569 15.0652 5.00731C15.1673 5.76678 15.1673 6.73719 15.1673 7.96235V8.0376C15.1673 9.26276 15.1673 10.2332 15.0652 10.9927C14.9601 11.7743 14.7387 12.4069 14.2398 12.9058C13.7409 13.4047 13.1083 13.6261 12.3267 13.7312C11.5672 13.8333 10.5968 13.8333 9.37162 13.8333H6.62971C5.40455 13.8333 4.43411 13.8333 3.67464 13.7312C2.89302 13.6261 2.26039 13.4047 1.76148 12.9058C1.26257 12.4069 1.04116 11.7743 0.936075 10.9927C0.833966 10.2332 0.833974 9.26278 0.833985 8.03761V7.96238C0.833974 6.73721 0.833966 5.76678 0.936075 5.00731C1.04116 4.22569 1.26257 3.59306 1.76148 3.09415C2.26039 2.59524 2.89302 2.37383 3.67464 2.26875C4.43411 2.16664 5.40454 2.16665 6.62971 2.16666ZM3.80788 3.25983C3.13716 3.35001 2.75073 3.51912 2.46859 3.80126C2.18645 4.0834 2.01733 4.46983 1.92716 5.14056C1.83505 5.82567 1.83399 6.72878 1.83399 7.99999C1.83399 9.2712 1.83505 10.1743 1.92716 10.8594C2.01733 11.5302 2.18645 11.9166 2.46859 12.1987C2.75073 12.4809 3.13716 12.65 3.80788 12.7402C4.49299 12.8323 5.3961 12.8333 6.66732 12.8333H9.33399C10.6052 12.8333 11.5083 12.8323 12.1934 12.7402C12.8641 12.65 13.2506 12.4809 13.5327 12.1987C13.8149 11.9166 13.984 11.5302 14.0741 10.8594C14.1663 10.1743 14.1673 9.2712 14.1673 7.99999C14.1673 6.72878 14.1663 5.82567 14.0741 5.14056C13.984 4.46983 13.8149 4.0834 13.5327 3.80126C13.2506 3.51912 12.8641 3.35001 12.1934 3.25983C11.5083 3.16772 10.6052 3.16666 9.33399 3.16666H6.66732C5.3961 3.16666 4.49299 3.16772 3.80788 3.25983Z" fill="#808080"/>
</svg>
