<svg width="18" height="18" viewBox="0 0 18 18" fill="none" xmlns="http://www.w3.org/2000/svg">
<path d="M13.053 10.072H9.71386V13.4111H8.04429V10.072H4.70516V8.40239H8.04429V5.06326H9.71386V8.40239H13.053M8.87908 0.889343C7.78282 0.889343 6.69731 1.10527 5.6845 1.52478C4.6717 1.9443 3.75144 2.5592 2.97627 3.33436C1.41075 4.89989 0.53125 7.02319 0.53125 9.23717C0.53125 11.4511 1.41075 13.5745 2.97627 15.14C3.75144 15.9151 4.6717 16.53 5.6845 16.9496C6.69731 17.3691 7.78282 17.585 8.87908 17.585C11.0931 17.585 13.2164 16.7055 14.7819 15.14C16.3474 13.5745 17.2269 11.4511 17.2269 9.23717C17.2269 8.14092 17.011 7.0554 16.5915 6.04259C16.1719 5.02979 15.557 4.10953 14.7819 3.33436C14.0067 2.5592 13.0865 1.9443 12.0737 1.52478C11.0608 1.10527 9.97533 0.889343 8.87908 0.889343Z" fill="#F1A706"/>
</svg>
