<svg width="16" height="16" viewBox="0 0 16 16" fill="none" xmlns="http://www.w3.org/2000/svg">
<path fill-rule="evenodd" clip-rule="evenodd" d="M3.03142 1.87662C3.86373 1.04788 5.23414 1.1954 5.93106 2.12764L6.79321 3.2809C7.36027 4.03944 7.31023 5.09959 6.63712 5.76982L6.47387 5.93237C6.46674 5.95311 6.44944 6.0183 6.46864 6.14219C6.51186 6.4212 6.74451 7.01303 7.72121 7.98554C8.69756 8.95771 9.29276 9.19046 9.57531 9.23386C9.70337 9.25353 9.77035 9.23519 9.79108 9.22796L10.07 8.95019C10.6684 8.35436 11.5879 8.24299 12.3288 8.6463L13.635 9.35738C14.7536 9.96628 15.0361 11.4888 14.1198 12.4013L13.1485 13.3683C12.8425 13.673 12.431 13.9271 11.9287 13.974C10.6919 14.0895 7.80784 13.9421 4.77756 10.9248C1.94842 8.10781 1.40551 5.65122 1.33682 4.44083L1.84878 4.4117L1.33682 4.44083C1.30209 3.8288 1.5909 3.31098 1.95827 2.94518L3.03142 1.87662ZM5.11006 2.74312C4.76368 2.27977 4.11806 2.24293 3.75454 2.60489L2.68139 3.67345C2.45582 3.89806 2.34729 4.14559 2.36074 4.38256C2.41531 5.34425 2.85378 7.561 5.50068 10.1966C8.27754 12.9615 10.8423 13.044 11.8335 12.9514C12.0361 12.9325 12.2375 12.8272 12.4254 12.6401L13.3966 11.673C13.7915 11.2799 13.7044 10.5641 13.1452 10.2597L11.839 9.5486C11.4783 9.35225 11.0557 9.41703 10.7932 9.67846L10.4818 9.98852L10.1202 9.62439C10.4818 9.98852 10.4813 9.98901 10.4808 9.98949L10.4798 9.99049L10.4777 9.99252L10.4733 9.9968L10.4632 10.0061C10.456 10.0127 10.4478 10.0199 10.4385 10.0276C10.42 10.043 10.3971 10.0604 10.3698 10.0788C10.3151 10.1155 10.2428 10.1554 10.152 10.1893C9.96678 10.2584 9.72258 10.2955 9.41982 10.249C8.82719 10.158 8.04212 9.75336 6.99809 8.71381C5.95442 7.6746 5.54697 6.89207 5.45519 6.29964C5.40826 5.9967 5.44569 5.75207 5.51552 5.56649C5.54974 5.47553 5.59007 5.40322 5.62708 5.34852C5.64554 5.32123 5.6631 5.29843 5.6786 5.2799C5.68636 5.27064 5.6936 5.26244 5.70019 5.25527L5.70958 5.24528L5.71388 5.24086L5.71592 5.23879L5.71692 5.23779C5.71741 5.2373 5.7179 5.23681 6.07946 5.60095L5.7179 5.23681L5.914 5.04155C6.20704 4.74977 6.24808 4.2654 5.97221 3.89638L5.11006 2.74312Z" fill="#808080"/>
</svg>
