<svg width="24" height="25" viewBox="0 0 24 25" fill="none" xmlns="http://www.w3.org/2000/svg">
<path fill-rule="evenodd" clip-rule="evenodd" d="M15 7.48077C15 8.27642 14.6839 9.03949 14.1213 9.60209C13.5587 10.1647 12.7956 10.4808 12 10.4808C11.2044 10.4808 10.4413 10.1647 9.87868 9.60209C9.31607 9.03949 9 8.27642 9 7.48077C9 6.68512 9.31607 5.92206 9.87868 5.35945C10.4413 4.79684 11.2044 4.48077 12 4.48077C12.7956 4.48077 13.5587 4.79684 14.1213 5.35945C14.6839 5.92206 15 6.68512 15 7.48077ZM17.25 7.48077C17.25 8.87316 16.6969 10.2085 15.7123 11.1931C14.7277 12.1777 13.3924 12.7308 12 12.7308C10.6076 12.7308 9.27226 12.1777 8.28769 11.1931C7.30312 10.2085 6.75 8.87316 6.75 7.48077C6.75 6.08839 7.30312 4.75303 8.28769 3.76846C9.27226 2.7839 10.6076 2.23077 12 2.23077C13.3924 2.23077 14.7277 2.7839 15.7123 3.76846C16.6969 4.75303 17.25 6.08839 17.25 7.48077ZM3.75 19.4808C3.75 19.1748 4.08 18.2673 5.73 17.2923C7.257 16.3908 9.48 15.7308 12 15.7308C14.52 15.7308 16.743 16.3908 18.27 17.2923C19.92 18.2673 20.25 19.1748 20.25 19.4808C20.25 19.8786 20.092 20.2601 19.8107 20.5414C19.5294 20.8227 19.1478 20.9808 18.75 20.9808H5.25C4.85218 20.9808 4.47064 20.8227 4.18934 20.5414C3.90804 20.2601 3.75 19.8786 3.75 19.4808ZM12 13.4808C6.225 13.4808 1.5 16.4808 1.5 19.4808C1.5 20.4753 1.89509 21.4292 2.59835 22.1324C3.30161 22.8357 4.25544 23.2308 5.25 23.2308H18.75C19.7446 23.2308 20.6984 22.8357 21.4016 22.1324C22.1049 21.4292 22.5 20.4753 22.5 19.4808C22.5 16.4808 17.775 13.4808 12 13.4808Z" fill="black"/>
</svg>
