<svg width="21" height="22" viewBox="0 0 21 22" fill="none" xmlns="http://www.w3.org/2000/svg">
<path d="M8.29288 4.11944H12.3724C12.3724 3.57846 12.1575 3.05963 11.775 2.6771C11.3925 2.29457 10.8736 2.07967 10.3327 2.07967C9.79167 2.07967 9.27285 2.29457 8.89032 2.6771C8.50778 3.05963 8.29288 3.57846 8.29288 4.11944ZM6.76305 4.11944C6.76305 3.65067 6.85538 3.18649 7.03477 2.75341C7.21416 2.32033 7.47709 1.92682 7.80856 1.59535C8.14003 1.26388 8.53354 1.00094 8.96662 0.821555C9.39971 0.642166 9.86388 0.549835 10.3327 0.549835C10.8014 0.549835 11.2656 0.642166 11.6987 0.821555C12.1318 1.00094 12.5253 1.26388 12.8567 1.59535C13.1882 1.92682 13.4511 2.32033 13.6305 2.75341C13.8099 3.18649 13.9023 3.65067 13.9023 4.11944H19.7666C19.9695 4.11944 20.164 4.20003 20.3075 4.34348C20.4509 4.48693 20.5315 4.68148 20.5315 4.88435C20.5315 5.08722 20.4509 5.28178 20.3075 5.42523C20.164 5.56868 19.9695 5.64927 19.7666 5.64927H18.4203L17.2271 18.0011C17.1355 18.9475 16.6947 19.8259 15.9907 20.465C15.2866 21.104 14.3697 21.4579 13.4188 21.4575H7.24648C6.2958 21.4576 5.37917 21.1037 4.67529 20.4646C3.97141 19.8256 3.53076 18.9474 3.43924 18.0011L2.24495 5.64927H0.898704C0.695836 5.64927 0.501277 5.56868 0.357827 5.42523C0.214378 5.28178 0.133789 5.08722 0.133789 4.88435C0.133789 4.68148 0.214378 4.48693 0.357827 4.34348C0.501277 4.20003 0.695836 4.11944 0.898704 4.11944H6.76305ZM8.80282 8.9639C8.80282 8.76103 8.72223 8.56647 8.57878 8.42302C8.43533 8.27957 8.24078 8.19898 8.03791 8.19898C7.83504 8.19898 7.64048 8.27957 7.49703 8.42302C7.35358 8.56647 7.27299 8.76103 7.27299 8.9639V16.613C7.27299 16.8159 7.35358 17.0105 7.49703 17.1539C7.64048 17.2974 7.83504 17.378 8.03791 17.378C8.24078 17.378 8.43533 17.2974 8.57878 17.1539C8.72223 17.0105 8.80282 16.8159 8.80282 16.613V8.9639ZM12.6274 8.19898C12.8303 8.19898 13.0248 8.27957 13.1683 8.42302C13.3117 8.56647 13.3923 8.76103 13.3923 8.9639V16.613C13.3923 16.8159 13.3117 17.0105 13.1683 17.1539C13.0248 17.2974 12.8303 17.378 12.6274 17.378C12.4245 17.378 12.23 17.2974 12.0865 17.1539C11.9431 17.0105 11.8625 16.8159 11.8625 16.613V8.9639C11.8625 8.76103 11.9431 8.56647 12.0865 8.42302C12.23 8.27957 12.4245 8.19898 12.6274 8.19898ZM4.96193 17.8542C5.01694 18.422 5.2814 18.9488 5.70376 19.3322C6.12612 19.7155 6.6761 19.9278 7.24648 19.9277H13.4188C13.9892 19.9278 14.5392 19.7155 14.9615 19.3322C15.3839 18.9488 15.6484 18.422 15.7034 17.8542L16.8844 5.64927H3.7809L4.96193 17.8542Z" fill="#808080"/>
</svg>
