<svg width="24" height="25" viewBox="0 0 24 25" fill="none" xmlns="http://www.w3.org/2000/svg">
<path d="M15 7.73077H9M15 11.7308H9M15 15.7308H11M5 3.73077H19V21.7308L17.968 20.8468C17.6055 20.5361 17.1439 20.3654 16.6665 20.3654C16.1891 20.3654 15.7275 20.5361 15.365 20.8468L14.333 21.7308L13.302 20.8468C12.9395 20.5358 12.4776 20.3649 12 20.3649C11.5224 20.3649 11.0605 20.5358 10.698 20.8468L9.667 21.7308L8.635 20.8468C8.27253 20.5361 7.81088 20.3654 7.3335 20.3654C6.85611 20.3654 6.39447 20.5361 6.032 20.8468L5 21.7308V3.73077Z" stroke="black" stroke-width="2" stroke-linecap="round" stroke-linejoin="round"/>
</svg>
