<svg width="25" height="24" viewBox="0 0 25 24" fill="none" xmlns="http://www.w3.org/2000/svg">
<rect x="0.75" width="24" height="24" rx="12" fill="#F3F4F5"/>
<circle cx="12.7507" cy="12" r="6.66667" fill="white"/>
<path d="M19.4173 12.0167C19.4173 8.3275 16.4307 5.33334 12.7507 5.33334C9.07065 5.33334 6.08398 8.3275 6.08398 12.0167C6.08398 15.2515 8.37732 17.9449 11.4173 18.5664V14.0217H10.084V12.0167H11.4173V10.3459C11.4173 9.05598 12.464 8.00669 13.7507 8.00669H15.4173V10.0117H14.084C13.7173 10.0117 13.4173 10.3125 13.4173 10.68V12.0167H15.4173V14.0217H13.4173V18.6667C16.784 18.3325 19.4173 15.4854 19.4173 12.0167Z" fill="#0165E1"/>
</svg>
