<svg width="24" height="25" viewBox="0 0 24 25" fill="none" xmlns="http://www.w3.org/2000/svg">
<path d="M19 14.7308V6.73077C19 5.63077 18.1 4.73077 17 4.73077H3C1.9 4.73077 1 5.63077 1 6.73077V14.7308C1 15.8308 1.9 16.7308 3 16.7308H17C18.1 16.7308 19 15.8308 19 14.7308ZM17 14.7308H3V6.73077H17V14.7308ZM10 7.73077C8.34 7.73077 7 9.07077 7 10.7308C7 12.3908 8.34 13.7308 10 13.7308C11.66 13.7308 13 12.3908 13 10.7308C13 9.07077 11.66 7.73077 10 7.73077ZM23 7.73077V18.7308C23 19.8308 22.1 20.7308 21 20.7308H4V18.7308H21V7.73077H23Z" fill="black"/>
</svg>
