<svg width="36" height="36" viewBox="0 0 36 36" fill="none" xmlns="http://www.w3.org/2000/svg">
<path d="M27 0H9C4.032 0 0 4.014 0 8.964V19.728V21.528C0 26.478 4.032 30.492 9 30.492H11.7C12.186 30.492 12.834 30.816 13.14 31.212L15.84 34.794C17.028 36.378 18.972 36.378 20.16 34.794L22.86 31.212C23.202 30.762 23.742 30.492 24.3 30.492H27C31.968 30.492 36 26.478 36 21.528V8.964C36 4.014 31.968 0 27 0ZM10.8 18C9.792 18 9 17.19 9 16.2C9 15.21 9.81 14.4 10.8 14.4C11.79 14.4 12.6 15.21 12.6 16.2C12.6 17.19 11.808 18 10.8 18ZM18 18C16.992 18 16.2 17.19 16.2 16.2C16.2 15.21 17.01 14.4 18 14.4C18.99 14.4 19.8 15.21 19.8 16.2C19.8 17.19 19.008 18 18 18ZM25.2 18C24.192 18 23.4 17.19 23.4 16.2C23.4 15.21 24.21 14.4 25.2 14.4C26.19 14.4 27 15.21 27 16.2C27 17.19 26.208 18 25.2 18Z" fill="#F5F5F5"/>
</svg>
