<svg width="25" height="25" viewBox="0 0 25 25" fill="none" xmlns="http://www.w3.org/2000/svg">
<path d="M3.53709 4.35156C2.41521 4.35156 1.49731 5.26946 1.49731 6.39134V18.63C1.49731 19.7518 2.41521 20.6697 3.53709 20.6697H14.2459C13.9685 20.0213 13.7963 19.3327 13.736 18.63H3.53709V8.43111L11.6962 13.5305L19.8553 8.43111V11.4908C20.0252 11.4842 20.1953 11.4842 20.3652 11.4908C20.8806 11.4923 21.394 11.5539 21.895 11.6743V6.39134C21.895 5.26946 20.9771 4.35156 19.8553 4.35156H3.53709ZM3.53709 6.39134H19.8553L11.6962 11.4908L3.53709 6.39134ZM19.8553 12.5107L17.5605 14.8054L19.8553 17.1001V15.5703C20.5315 15.5703 21.18 15.8389 21.6582 16.3171C22.1364 16.7953 22.405 17.4438 22.405 18.12C22.405 18.528 22.3132 18.9155 22.1398 19.2623L23.2515 20.374C23.6798 19.7315 23.9348 18.9563 23.9348 18.12C23.9348 15.8661 22.1092 14.0405 19.8553 14.0405V12.5107ZM16.459 15.8661C16.0307 16.5086 15.7757 17.2837 15.7757 18.12C15.7757 20.374 17.6013 22.1996 19.8553 22.1996V23.7294L22.15 21.4347L19.8553 19.1399V20.6697C19.179 20.6697 18.5305 20.4011 18.0523 19.923C17.5742 19.4448 17.3056 18.7963 17.3056 18.12C17.3056 17.7121 17.3973 17.3245 17.5707 16.9778L16.459 15.8661Z" fill="#808080"/>
</svg>
