<svg width="19" height="21" viewBox="0 0 19 21" fill="none" xmlns="http://www.w3.org/2000/svg">
<path d="M17.3962 18.8344L15.9045 17.1477M9.56443 17.9911C10.495 17.9911 11.4164 17.7838 12.2761 17.3812C13.1358 16.9785 13.9169 16.3884 14.5749 15.6444C15.2329 14.9004 15.7549 14.0171 16.111 13.045C16.4671 12.073 16.6504 11.0311 16.6504 9.97893C16.6504 8.92676 16.4671 7.8849 16.111 6.91282C15.7549 5.94074 15.2329 5.05749 14.5749 4.3135C13.9169 3.5695 13.1358 2.97933 12.2761 2.57668C11.4164 2.17404 10.495 1.9668 9.56443 1.9668C7.68513 1.9668 5.8828 2.81093 4.55393 4.3135C3.22507 5.81606 2.47852 7.85398 2.47852 9.97893C2.47852 12.1039 3.22507 14.1418 4.55393 15.6444C5.8828 17.1469 7.68513 17.9911 9.56443 17.9911V17.9911Z" stroke="black" stroke-opacity="0.57" stroke-width="0.867675" stroke-linecap="round" stroke-linejoin="round"/>
</svg>
