<svg width="25" height="25" viewBox="0 0 25 25" fill="none" xmlns="http://www.w3.org/2000/svg">
<path d="M16.9224 20.1602C17.7673 20.1602 18.4522 19.4753 18.4522 18.6304C18.4522 17.7855 17.7673 17.1006 16.9224 17.1006C16.0775 17.1006 15.3926 17.7855 15.3926 18.6304C15.3926 19.4753 16.0775 20.1602 16.9224 20.1602Z" fill="#808080"/>
<path d="M22.8708 18.232C22.3982 17.0279 21.5826 15.989 20.5252 15.244C19.4677 14.4991 18.2149 14.0808 16.9221 14.041C15.6292 14.0808 14.3764 14.4991 13.3189 15.244C12.2615 15.989 11.4459 17.0279 10.9733 18.232L10.8027 18.6305L10.9733 19.0298C11.4461 20.2337 12.2617 21.2725 13.3191 22.0173C14.3765 22.7621 15.6293 23.1803 16.9221 23.22C18.2149 23.1803 19.4676 22.7621 20.525 22.0173C21.5824 21.2725 22.3981 20.2337 22.8708 19.0298L23.0414 18.6305L22.8708 18.232ZM16.9221 21.6902C16.3169 21.6902 15.7254 21.5107 15.2222 21.1745C14.719 20.8383 14.3269 20.3605 14.0953 19.8014C13.8637 19.2423 13.8031 18.6271 13.9212 18.0336C14.0392 17.4401 14.3306 16.8949 14.7585 16.467C15.1864 16.0391 15.7316 15.7477 16.3251 15.6296C16.9187 15.5116 17.5339 15.5722 18.0929 15.8037C18.652 16.0353 19.1299 16.4275 19.4661 16.9306C19.8023 17.4338 19.9817 18.0254 19.9817 18.6305C19.9807 19.4417 19.658 20.2193 19.0844 20.7929C18.5109 21.3665 17.7332 21.6892 16.9221 21.6902Z" fill="#808080"/>
<path d="M9.2731 21.6905H5.44853V5.62731H7.74327V7.92205H16.9223V5.62731H19.217V12.5115H20.7468V5.62731C20.7468 5.22157 20.5856 4.83245 20.2987 4.54556C20.0119 4.25866 19.6227 4.09748 19.217 4.09748H16.9223V3.33256C16.9223 2.92683 16.7611 2.53771 16.4742 2.25081C16.1873 1.96391 15.7982 1.80273 15.3924 1.80273H9.2731C8.86737 1.80273 8.47825 1.96391 8.19135 2.25081C7.90445 2.53771 7.74327 2.92683 7.74327 3.33256V4.09748H5.44853C5.04279 4.09748 4.65368 4.25866 4.36678 4.54556C4.07988 4.83245 3.9187 5.22157 3.9187 5.62731V21.6905C3.9187 22.0963 4.07988 22.4854 4.36678 22.7723C4.65368 23.0592 5.04279 23.2203 5.44853 23.2203H9.2731V21.6905ZM9.2731 3.33256H15.3924V6.39222H9.2731V3.33256Z" fill="#808080"/>
</svg>
